<?xml version="1.0" encoding="UTF-8" standalone="no"?>
<svg
   xmlns:dc="http://purl.org/dc/elements/1.1/"
   xmlns:cc="http://creativecommons.org/ns#"
   xmlns:rdf="http://www.w3.org/1999/02/22-rdf-syntax-ns#"
   xmlns:svg="http://www.w3.org/2000/svg"
   xmlns="http://www.w3.org/2000/svg"
   xmlns:sodipodi="http://sodipodi.sourceforge.net/DTD/sodipodi-0.dtd"
   xmlns:inkscape="http://www.inkscape.org/namespaces/inkscape"
   height="28.144365"
   width="64.75"
   version="1.1"
   id="svg52"
   sodipodi:docname="periphery_example2.svg"
   inkscape:version="0.92.3 (unknown)">
  <metadata
     id="metadata56">
    <rdf:RDF>
      <cc:Work
         rdf:about="">
        <dc:format>image/svg+xml</dc:format>
        <dc:type
           rdf:resource="http://purl.org/dc/dcmitype/StillImage" />
        <dc:title></dc:title>
      </cc:Work>
    </rdf:RDF>
  </metadata>
  <sodipodi:namedview
     pagecolor="#ffffff"
     bordercolor="#666666"
     borderopacity="1"
     objecttolerance="10"
     gridtolerance="10"
     guidetolerance="10"
     inkscape:pageopacity="0"
     inkscape:pageshadow="2"
     inkscape:window-width="1920"
     inkscape:window-height="1172"
     id="namedview54"
     showgrid="false"
     inkscape:zoom="7.071068"
     inkscape:cx="-18.361477"
     inkscape:cy="-10.310486"
     inkscape:window-x="1920"
     inkscape:window-y="0"
     inkscape:window-maximized="1"
     inkscape:current-layer="svg52"
     fit-margin-top="0"
     fit-margin-left="0"
     fit-margin-right="0"
     fit-margin-bottom="0" />
  <defs
     id="defs2" />
  <polyline
     id="polyline4"
     style="fill:none;stroke:#000000;stroke-width:1.70000005;stroke-linecap:round"
     points=" 5,18.75 5,18.75 31,18.75"
     transform="translate(-2.625,6.8179322)" />
  <polyline
     id="polyline6"
     style="fill:none;stroke:#f8da00;stroke-width:1.5;stroke-linecap:round;stroke-opacity:1"
     points=" 5,18.75 5,18.75 31,18.75"
     transform="translate(-2.625,6.8179322)" />
  <g
     id="g84"
     transform="matrix(1.0726893,0,0,1,-2.9257807,6.8179322)">
    <polyline
       points=" 5,16.25 5,16.25 31,16.25"
       style="fill:none;stroke:#000000;stroke-width:1.70000005;stroke-linecap:round"
       id="polyline8" />
    <polyline
       points=" 5,16.25 5,16.25 31,16.25"
       style="fill:none;stroke:#00ff00;stroke-width:1.5;stroke-linecap:round;stroke-opacity:1"
       id="polyline10" />
  </g>
  <g
     id="g80"
     transform="matrix(1.0704576,0,0,1,-2.9165462,6.8179322)">
    <g
       id="g71">
      <g
         id="g74">
        <polyline
           points=" 5,13.75 31,13.75"
           style="fill:none;stroke:#000000;stroke-width:1.70000005;stroke-linecap:round"
           id="polyline12" />
      </g>
    </g>
    <polyline
       points=" 5,13.75 31,13.75"
       style="fill:none;stroke:#ff0000;stroke-width:1.5;stroke-linecap:round;stroke-opacity:1"
       id="polyline14" />
  </g>
  <polyline
     id="polyline16"
     style="fill:none;stroke:#000000;stroke-width:1.70000005;stroke-linecap:round"
     points=" 5,11.25 31,11.25"
     transform="matrix(1.0975567,0,0,1,-3.0286794,6.8179322)" />
  <polyline
     id="polyline18"
     style="fill:none;stroke:#0000ff;stroke-width:1.5;stroke-linecap:round;stroke-opacity:1"
     points=" 5,11.25 31,11.25"
     transform="matrix(1.0890217,0,0,1,-3.0023915,6.8179322)" />
  <polyline
     id="polyline24"
     style="fill:none;stroke:#000000;stroke-width:1.70000005;stroke-linecap:round"
     points=" 43.8,18.7 65,18.7"
     transform="translate(-2.625,6.8179322)" />
  <polyline
     id="polyline26"
     style="fill:none;stroke:#f8da00;stroke-width:1.5;stroke-linecap:round;stroke-opacity:1"
     points=" 43.8,18.7 65,18.7"
     transform="translate(-2.625,6.8179322)" />
  <g
     id="g34"
     transform="translate(-2.625,6.8179322)">
    <polyline
       points=" 31,18.75 31.8591,18.7497 32.6418,18.7488 33.3559,18.7473 34.0094,18.7454 34.6101,18.743 35.166,18.7404 35.685,18.7374 36.175,18.7342 36.6439,18.7308 37.0996,18.7273 37.55,18.7238 38.0031,18.7203 38.4667,18.7169 38.9488,18.7137 39.4572,18.7106 39.9999,18.7078 40.5848,18.7054 41.2198,18.7033 41.9128,18.7017 42.6717,18.7006 43.5045,18.7 43.8,18.7"
       style="fill:none;stroke:#000000;stroke-width:1.70000005;stroke-linecap:butt"
       id="polyline30" />
    <polyline
       points=" 31,18.75 31.8591,18.7497 32.6418,18.7488 33.3559,18.7473 34.0094,18.7454 34.6101,18.743 35.166,18.7404 35.685,18.7374 36.175,18.7342 36.6439,18.7308 37.0996,18.7273 37.55,18.7238 38.0031,18.7203 38.4667,18.7169 38.9488,18.7137 39.4572,18.7106 39.9999,18.7078 40.5848,18.7054 41.2198,18.7033 41.9128,18.7017 42.6717,18.7006 43.5045,18.7 43.8,18.7"
       style="fill:none;stroke:#f8da00;stroke-width:1.5;stroke-linecap:round;stroke-opacity:1"
       id="polyline32" />
  </g>
  <polygon
     style="fill:#ffffff;stroke:#000000;stroke-width:0.75"
     id="polygon42"
     points="3.26795,10.5 3.46791,10.2144 3.71442,9.96791 4,9.76795 4.31596,9.62061 4.6527,9.53038 5,9.5 5.3473,9.53038 5.68404,9.62061 6,9.76795 6.28558,9.96791 6.53209,10.2144 6.73205,10.5 6.87939,10.816 6.96962,11.1527 7,11.5 7,11.5 7,18.5 6.96962,18.8473 6.87939,19.184 6.73205,19.5 6.53209,19.7856 6.28558,20.0321 6,20.2321 5.68404,20.3794 5.3473,20.4696 5,20.5 4.6527,20.4696 4.31596,20.3794 4,20.2321 3.71442,20.0321 3.46791,19.7856 3.26795,19.5 3.12061,19.184 3.03038,18.8473 3,18.5 3,11.5 3.03038,11.1527 3.12061,10.816 "
     transform="translate(-2.625,6.8179322)" />
  <g
     id="g4565"
     transform="matrix(-0.00332849,0.53314683,-0.99999446,-0.00177459,13.535281,-3.9003598)">
    <polyline
       transform="matrix(1.0975567,0,0,1,7.9625645,-30.117826)"
       points=" 5,11.25 31,11.25"
       style="fill:none;stroke:#000000;stroke-width:1.70000005;stroke-linecap:round"
       id="polyline16-3" />
    <polyline
       transform="matrix(1.0890217,0,0,1,7.9888523,-30.117826)"
       points=" 5,11.25 31,11.25"
       style="fill:none;stroke:#0000ff;stroke-width:1.5;stroke-linecap:round;stroke-opacity:1"
       id="polyline18-6" />
  </g>
  <polygon
     style="fill:#ffffff;stroke:#000000;stroke-width:0.75"
     id="polygon44"
     points="36.0157,9.75888 36.303,9.95635 36.5516,10.2007 36.7541,10.4845 36.9042,10.7992 36.9973,11.1351 37.0307,11.4821 37.0957,18.9319 37.0739,19.2449 37.0033,19.5507 36.8857,19.8417 36.7241,20.1107 36.5223,20.3511 36.2855,20.557 36.0193,20.7233 35.7304,20.846 35.4259,20.9219 35.1133,20.9492 34.9895,20.9503 34.6419,20.923 34.3044,20.8357 33.9872,20.6911 33.6999,20.4936 33.4512,20.2493 33.2488,19.9655 33.0987,19.6508 33.0055,19.3149 32.9721,18.9678 32.9071,11.5181 32.929,11.2051 32.9996,10.8993 33.1171,10.6083 33.2788,10.3393 33.4805,10.0989 33.7174,9.89296 33.9835,9.72665 34.2724,9.60403 34.5769,9.5281 34.8896,9.50075 35.0134,9.49967 35.3609,9.52702 35.6984,9.61431 "
     transform="translate(-2.625,6.8179322)" />
  <polygon
     style="fill:#ffffff;stroke:#000000;stroke-width:0.75"
     id="polygon46"
     points="51.8887,6.19793 51.6878,6.48282 51.4404,6.7285 51.1542,6.92749 50.8377,7.07375 50.5007,7.16284 50.1533,7.19204 49.8061,7.16048 49.4696,7.06911 49.1542,6.9207 48.8693,6.71977 48.6236,6.47242 48.6236,6.47242 48.3035,6.08831 48.1045,5.80206 47.9583,5.4856 47.8692,5.14856 47.84,4.80116 47.8715,4.45397 47.9629,4.11753 48.1113,3.80207 48.3122,3.51718 48.5596,3.2715 48.8458,3.07251 49.1623,2.92625 49.4993,2.83716 49.8467,2.80796 50.1939,2.83952 50.5304,2.93089 50.8458,3.0793 51.1307,3.28023 51.3764,3.52758 51.6965,3.91169 51.8955,4.19794 52.0417,4.5144 52.1308,4.85144 52.16,5.19884 52.1285,5.54603 52.0371,5.88247 "
     transform="rotate(-50.870202,38.411428,22.259675)" />
  <polygon
     style="fill:#ffffff;stroke:#000000;stroke-width:0.75"
     id="polygon48"
     points="66.7321,19.95 66.5321,20.2356 66.2856,20.4821 66,20.6821 65.684,20.8294 65.3473,20.9196 65,20.95 64.6527,20.9196 64.316,20.8294 64,20.6821 63.7144,20.4821 63.4679,20.2356 63.2679,19.95 63.1206,19.634 63.0304,19.2973 63,18.95 63,18.95 63,18.45 63.0304,18.1027 63.1206,17.766 63.2679,17.45 63.4679,17.1644 63.7144,16.9179 64,16.7179 64.316,16.5706 64.6527,16.4804 65,16.45 65.3473,16.4804 65.684,16.5706 66,16.7179 66.2856,16.9179 66.5321,17.1644 66.7321,17.45 66.8794,17.766 66.9696,18.1027 67,18.45 67,18.95 66.9696,19.2973 66.8794,19.634 "
     transform="translate(-2.625,6.8179322)" />
</svg>
