<?xml version="1.0" encoding="UTF-8" standalone="no"?>
<svg
   xmlns:dc="http://purl.org/dc/elements/1.1/"
   xmlns:cc="http://creativecommons.org/ns#"
   xmlns:rdf="http://www.w3.org/1999/02/22-rdf-syntax-ns#"
   xmlns:svg="http://www.w3.org/2000/svg"
   xmlns="http://www.w3.org/2000/svg"
   xmlns:sodipodi="http://sodipodi.sourceforge.net/DTD/sodipodi-0.dtd"
   xmlns:inkscape="http://www.inkscape.org/namespaces/inkscape"
   height="24.34358"
   width="40.449226"
   version="1.1"
   id="svg92"
   sodipodi:docname="logo.svg"
   inkscape:version="0.92.1 unknown">
  <metadata
     id="metadata96">
    <rdf:RDF>
      <cc:Work
         rdf:about="">
        <dc:format>image/svg+xml</dc:format>
        <dc:type
           rdf:resource="http://purl.org/dc/dcmitype/StillImage" />
        <dc:title></dc:title>
      </cc:Work>
    </rdf:RDF>
  </metadata>
  <sodipodi:namedview
     pagecolor="#ffffff"
     bordercolor="#666666"
     borderopacity="1"
     objecttolerance="10"
     gridtolerance="10"
     guidetolerance="10"
     inkscape:pageopacity="0"
     inkscape:pageshadow="2"
     inkscape:window-width="1920"
     inkscape:window-height="1172"
     id="namedview94"
     showgrid="false"
     inkscape:zoom="14"
     inkscape:cx="16.055065"
     inkscape:cy="22.858273"
     inkscape:window-x="1920"
     inkscape:window-y="0"
     inkscape:window-maximized="1"
     inkscape:current-layer="svg92"
     fit-margin-top="0"
     fit-margin-left="0"
     fit-margin-right="0"
     fit-margin-bottom="0" />
  <defs
     id="defs2" />
  <polyline
     id="polyline10"
     style="fill:none;stroke:#000000;stroke-width:2.20000005;stroke-linecap:round"
     points=" 6.06066,3.93934 6.06066,3.93934 10.3331,8.21177"
     transform="translate(-2.8282297,-2.8282297)" />
  <polyline
     id="polyline12"
     style="fill:none;stroke:#000000;stroke-width:2.20000005;stroke-linecap:round"
     points=" 21.2,12 28.8,12"
     transform="matrix(0.55317789,0,0,1,6.1458944,-2.8282297)" />
  <polyline
     id="polyline14"
     style="fill:none;stroke:#000000;stroke-width:2.20000005;stroke-linecap:round"
     points=" 41.7882,19.6669 46.0607,23.9393"
     transform="translate(-6.7225824,-2.8282297)" />
  <polyline
     id="polyline18"
     style="fill:none;stroke:#ff0000;stroke-width:2;stroke-linecap:round;stroke-opacity:1"
     points=" 6.06066,3.93934 6.06066,3.93934 10.3331,8.21177"
     transform="translate(-2.8282297,-2.8282297)" />
  <polyline
     id="polyline20"
     style="fill:none;stroke:#ff0000;stroke-width:2;stroke-linecap:round;stroke-opacity:1"
     points=" 21.2,12 28.8,12"
     transform="matrix(0.54561907,0,0,1,6.3437937,-2.8282297)" />
  <polyline
     id="polyline22"
     style="fill:none;stroke:#ff0000;stroke-width:2;stroke-linecap:round;stroke-opacity:1"
     points=" 41.7882,19.6669 46.0607,23.9393"
     transform="translate(-6.7225824,-2.8282297)" />
  <polyline
     id="polyline26"
     style="fill:none;stroke:#000000;stroke-width:2.20000005;stroke-linecap:round"
     points=" 3.93934,6.06066 8.21177,10.3331"
     transform="translate(-2.8282297,-2.8282297)" />
  <polyline
     id="polyline28"
     style="fill:none;stroke:#000000;stroke-width:2.20000005;stroke-linecap:round"
     points=" 21.2,15 28.8,15"
     transform="matrix(0.57497409,0,0,1,5.7081322,-2.8282297)" />
  <polyline
     id="polyline30"
     style="fill:none;stroke:#000000;stroke-width:2.20000005;stroke-linecap:round"
     points=" 39.6669,21.7882 39.6669,21.7882 43.9393,26.0607 43.9393,26.0607"
     transform="translate(-6.7225824,-2.8282297)" />
  <polyline
     id="polyline34"
     style="fill:none;stroke:#0000ff;stroke-width:2;stroke-linecap:round;stroke-opacity:1"
     points=" 3.93934,6.06066 8.21177,10.3331"
     transform="translate(-2.8282297,-2.8282297)" />
  <polyline
     id="polyline36"
     style="fill:none;stroke:#0000ff;stroke-width:2;stroke-linecap:round;stroke-opacity:1"
     points=" 21.2,15 28.8,15"
     transform="matrix(0.56416523,0,0,1,5.9694254,-2.8282297)" />
  <polyline
     id="polyline38"
     style="fill:none;stroke:#0000ff;stroke-width:2;stroke-linecap:round;stroke-opacity:1"
     points=" 39.6669,21.7882 39.6669,21.7882 43.9393,26.0607 43.9393,26.0607"
     transform="translate(-6.7225824,-2.8282297)" />
  <polyline
     id="polyline42"
     style="fill:none;stroke:#000000;stroke-width:2.20000005;stroke-linecap:round"
     points=" 5,25 9.27244,20.7276"
     transform="translate(-2.8282297,-2.8282297)" />
  <polyline
     id="polyline44"
     style="fill:none;stroke:#000000;stroke-width:2.20000005;stroke-linecap:round"
     points=" 21.2,18 28.8,18"
     transform="matrix(0.56407599,0,0,1,5.9270133,-2.8282297)" />
  <polyline
     id="polyline46"
     style="fill:none;stroke:#000000;stroke-width:2.20000005;stroke-linecap:round"
     points=" 40.7276,9.27244 45,5"
     transform="translate(-6.7225824,-2.8282297)" />
  <polyline
     id="polyline50"
     style="fill:none;stroke:#00ff00;stroke-width:2;stroke-linecap:round;stroke-opacity:1"
     points=" 5,25 9.27244,20.7276"
     transform="translate(-2.8282297,-2.8282297)" />
  <polyline
     id="polyline52"
     style="fill:none;stroke:#00ff00;stroke-width:2;stroke-linecap:round;stroke-opacity:1"
     points=" 21.2,18 28.8,18"
     transform="matrix(0.55489215,0,0,1,6.1566095,-2.8282297)" />
  <polyline
     id="polyline54"
     style="fill:none;stroke:#00ff00;stroke-width:2;stroke-linecap:round;stroke-opacity:1"
     points=" 40.7276,9.27244 45,5"
     transform="translate(-6.7225824,-2.8282297)" />
  <polyline
     id="polyline58"
     style="fill:none;stroke:#000000;stroke-width:2.20000005;stroke-linecap:butt"
     points=" 10.3185,8.19729 12.8169,10.4834 14.7055,11.5859 16.9618,11.9536 21.2,12"
     transform="translate(-2.8282297,-2.8282297)" />
  <polyline
     id="polyline60"
     style="fill:none;stroke:#ff0000;stroke-width:2;stroke-linecap:round;stroke-opacity:1"
     points=" 10.3185,8.19729 12.8169,10.4834 14.7055,11.5859 16.9618,11.9536 21.2,12"
     transform="translate(-2.8282297,-2.8282297)" />
  <polyline
     id="polyline62"
     style="fill:none;stroke:#000000;stroke-width:2.20000005;stroke-linecap:butt"
     points=" 8.21177,10.3331 11.4469,13.2062 13.7174,14.4201 16.2165,14.9095 21.2,15"
     transform="translate(-2.8282297,-2.8282297)" />
  <polyline
     id="polyline64"
     style="fill:none;stroke:#0000ff;stroke-width:2;stroke-linecap:round;stroke-opacity:1"
     points=" 8.21177,10.3331 11.4469,13.2062 13.7174,14.4201 16.2165,14.9095 21.2,15"
     transform="translate(-2.8282297,-2.8282297)" />
  <polyline
     id="polyline68"
     style="fill:none;stroke:#000000;stroke-width:2.20000005;stroke-linecap:butt"
     points=" 9.27244,20.7276 11.5464,18.809 13.5028,17.9174 15.4802,17.7122 21.2,18"
     transform="translate(-2.8282297,-2.8282297)" />
  <polyline
     id="polyline70"
     style="fill:none;stroke:#00ff00;stroke-width:2;stroke-linecap:round;stroke-opacity:1"
     points=" 9.27244,20.7276 11.5464,18.809 13.5028,17.9174 15.4802,17.7122 21.2,18"
     transform="translate(-2.8282297,-2.8282297)" />
  <polyline
     id="polyline74"
     style="fill:none;stroke:#000000;stroke-width:2.20000005;stroke-linecap:butt"
     points=" 28.8,12 32.518,12.2823 34.151,12.7307 35.4932,13.3967 37.4343,15.0085 41.7882,19.6669"
     transform="translate(-6.7225824,-2.8282297)" />
  <polyline
     id="polyline76"
     style="fill:none;stroke:#ff0000;stroke-width:2;stroke-linecap:round;stroke-opacity:1"
     points=" 28.8,12 32.518,12.2823 34.151,12.7307 35.4932,13.3967 37.4343,15.0085 41.7882,19.6669"
     transform="translate(-6.7225824,-2.8282297)" />
  <polyline
     id="polyline78"
     style="fill:none;stroke:#000000;stroke-width:2.20000005;stroke-linecap:butt"
     points=" 28.7614,14.9998 31.9623,15.2314 33.9011,15.9412 35.3054,17.1225 39.6645,21.7858"
     transform="translate(-6.7225824,-2.8282297)" />
  <polyline
     id="polyline80"
     style="fill:none;stroke:#0000ff;stroke-width:2;stroke-linecap:round;stroke-opacity:1"
     points=" 28.7614,14.9998 31.9623,15.2314 33.9011,15.9412 35.3054,17.1225 39.6645,21.7858"
     transform="translate(-6.7225824,-2.8282297)" />
  <polyline
     id="polyline84"
     style="fill:none;stroke:#000000;stroke-width:2.20000005;stroke-linecap:butt"
     points=" 28.8,18 31.8209,17.7306 32.9645,17.4024 34.3475,16.6842 35.8072,15.3352 38.7567,11.4661 40.7276,9.27244"
     transform="translate(-6.7225824,-2.8282297)" />
  <polyline
     id="polyline86"
     style="fill:none;stroke:#00ff00;stroke-width:2;stroke-linecap:round;stroke-opacity:1"
     points=" 28.8,18 31.8209,17.7306 32.9645,17.4024 34.3475,16.6842 35.8072,15.3352 38.7567,11.4661 40.7276,9.27244"
     transform="translate(-6.7225824,-2.8282297)" />
</svg>
