<?xml version="1.0" encoding="UTF-8" standalone="no"?>
<svg
   xmlns:dc="http://purl.org/dc/elements/1.1/"
   xmlns:cc="http://creativecommons.org/ns#"
   xmlns:rdf="http://www.w3.org/1999/02/22-rdf-syntax-ns#"
   xmlns:svg="http://www.w3.org/2000/svg"
   xmlns="http://www.w3.org/2000/svg"
   xmlns:sodipodi="http://sodipodi.sourceforge.net/DTD/sodipodi-0.dtd"
   xmlns:inkscape="http://www.inkscape.org/namespaces/inkscape"
   height="23.282881"
   width="25.179876"
   version="1.1"
   id="svg92"
   sodipodi:docname="icon.svg"
   inkscape:version="0.92.1 unknown">
  <metadata
     id="metadata96">
    <rdf:RDF>
      <cc:Work
         rdf:about="">
        <dc:format>image/svg+xml</dc:format>
        <dc:type
           rdf:resource="http://purl.org/dc/dcmitype/StillImage" />
        <dc:title></dc:title>
      </cc:Work>
    </rdf:RDF>
  </metadata>
  <sodipodi:namedview
     pagecolor="#ffffff"
     bordercolor="#666666"
     borderopacity="1"
     objecttolerance="10"
     gridtolerance="10"
     guidetolerance="10"
     inkscape:pageopacity="0"
     inkscape:pageshadow="2"
     inkscape:window-width="1920"
     inkscape:window-height="1172"
     id="namedview94"
     showgrid="false"
     inkscape:zoom="4.9497475"
     inkscape:cx="-4.8847152"
     inkscape:cy="13.723646"
     inkscape:window-x="1920"
     inkscape:window-y="0"
     inkscape:window-maximized="1"
     inkscape:current-layer="svg92"
     fit-margin-top="0"
     fit-margin-left="0"
     fit-margin-right="0"
     fit-margin-bottom="0" />
  <defs
     id="defs2" />
  <polyline
     id="polyline10"
     style="fill:none;stroke:#000000;stroke-width:2.20000005;stroke-linecap:round"
     points=" 6.06066,3.93934 6.06066,3.93934 10.3331,8.21177"
     transform="translate(-2.8282297,-2.8282297)" />
  <polyline
     id="polyline12"
     style="fill:none;stroke:#000000;stroke-width:2.20000005;stroke-linecap:round"
     points=" 21.2,12 28.8,12"
     transform="matrix(0.80597136,0,0,1,1.0687062,-2.8282297)" />
  <polyline
     id="polyline18"
     style="fill:none;stroke:#ff0000;stroke-width:2;stroke-linecap:round;stroke-opacity:1"
     points=" 6.06066,3.93934 6.06066,3.93934 10.3331,8.21177"
     transform="translate(-2.8282297,-2.8282297)" />
  <polyline
     id="polyline20"
     style="fill:none;stroke:#ff0000;stroke-width:2;stroke-linecap:round;stroke-opacity:1"
     points=" 21.2,12 28.8,12"
     transform="matrix(0.80450647,0,0,1,1.1179552,-2.8282297)" />
  <polyline
     id="polyline26"
     style="fill:none;stroke:#000000;stroke-width:2.20000005;stroke-linecap:round"
     points=" 3.93934,6.06066 8.21177,10.3331"
     transform="translate(-2.8282297,-2.8282297)" />
  <polyline
     id="polyline28"
     style="fill:none;stroke:#000000;stroke-width:2.20000005;stroke-linecap:round"
     points=" 21.2,15 28.8,15"
     transform="matrix(0.80039322,0,0,1,1.1807393,-2.8282297)" />
  <polyline
     id="polyline34"
     style="fill:none;stroke:#0000ff;stroke-width:2;stroke-linecap:round;stroke-opacity:1"
     points=" 3.93934,6.06066 8.21177,10.3331"
     transform="translate(-2.8282297,-2.8282297)" />
  <polyline
     id="polyline36"
     style="fill:none;stroke:#0000ff;stroke-width:2;stroke-linecap:round;stroke-opacity:1"
     points=" 21.2,15 28.8,15"
     transform="matrix(0.79541979,0,0,1,1.3013768,-2.8282297)" />
  <polyline
     id="polyline42"
     style="fill:none;stroke:#000000;stroke-width:2.20000005;stroke-linecap:round"
     points=" 5,25 9.27244,20.7276"
     transform="translate(-2.8282297,-2.8282297)" />
  <polyline
     id="polyline44"
     style="fill:none;stroke:#000000;stroke-width:2.20000005;stroke-linecap:round"
     points=" 21.2,18 28.8,18"
     transform="matrix(0.79813615,0,0,1,1.226071,-2.8282297)" />
  <polyline
     id="polyline50"
     style="fill:none;stroke:#00ff00;stroke-width:2;stroke-linecap:round;stroke-opacity:1"
     points=" 5,25 9.27244,20.7276"
     transform="translate(-2.8282297,-2.8282297)" />
  <polyline
     id="polyline52"
     style="fill:none;stroke:#00ff00;stroke-width:2;stroke-linecap:round;stroke-opacity:1"
     points=" 21.2,18 28.8,18"
     transform="matrix(0.79758913,0,0,1,1.2101638,-2.8282297)" />
  <polyline
     id="polyline58"
     style="fill:none;stroke:#000000;stroke-width:2.20000005;stroke-linecap:butt"
     points=" 10.3185,8.19729 12.8169,10.4834 14.7055,11.5859 16.9618,11.9536 21.2,12"
     transform="translate(-2.8282297,-2.8282297)" />
  <polyline
     id="polyline60"
     style="fill:none;stroke:#ff0000;stroke-width:2;stroke-linecap:round;stroke-opacity:1"
     points=" 10.3185,8.19729 12.8169,10.4834 14.7055,11.5859 16.9618,11.9536 21.2,12"
     transform="translate(-2.8282297,-2.8282297)" />
  <polyline
     id="polyline62"
     style="fill:none;stroke:#000000;stroke-width:2.20000005;stroke-linecap:butt"
     points=" 8.21177,10.3331 11.4469,13.2062 13.7174,14.4201 16.2165,14.9095 21.2,15"
     transform="translate(-2.8282297,-2.8282297)" />
  <polyline
     id="polyline64"
     style="fill:none;stroke:#0000ff;stroke-width:2;stroke-linecap:round;stroke-opacity:1"
     points=" 8.21177,10.3331 11.4469,13.2062 13.7174,14.4201 16.2165,14.9095 21.2,15"
     transform="translate(-2.8282297,-2.8282297)" />
  <polyline
     id="polyline68"
     style="fill:none;stroke:#000000;stroke-width:2.20000005;stroke-linecap:butt"
     points=" 9.27244,20.7276 11.5464,18.809 13.5028,17.9174 15.4802,17.7122 21.2,18"
     transform="translate(-2.8282297,-2.8282297)" />
  <polyline
     id="polyline70"
     style="fill:none;stroke:#00ff00;stroke-width:2;stroke-linecap:round;stroke-opacity:1"
     points=" 9.27244,20.7276 11.5464,18.809 13.5028,17.9174 15.4802,17.7122 21.2,18"
     transform="translate(-2.8282297,-2.8282297)" />
</svg>
