<?xml version="1.0" encoding="UTF-8" standalone="no"?>
<svg
   xmlns:dc="http://purl.org/dc/elements/1.1/"
   xmlns:cc="http://creativecommons.org/ns#"
   xmlns:rdf="http://www.w3.org/1999/02/22-rdf-syntax-ns#"
   xmlns:svg="http://www.w3.org/2000/svg"
   xmlns="http://www.w3.org/2000/svg"
   xmlns:sodipodi="http://sodipodi.sourceforge.net/DTD/sodipodi-0.dtd"
   xmlns:inkscape="http://www.inkscape.org/namespaces/inkscape"
   height="80px"
   width="90px"
   id="svg2"
   version="1.1"
   inkscape:version="0.91 r13725"
   sodipodi:docname="inputex.svg">
  <metadata
     id="metadata82">
    <rdf:RDF>
      <cc:Work
         rdf:about="">
        <dc:format>image/svg+xml</dc:format>
        <dc:type
           rdf:resource="http://purl.org/dc/dcmitype/StillImage" />
        <dc:title></dc:title>
      </cc:Work>
    </rdf:RDF>
  </metadata>
  <sodipodi:namedview
     pagecolor="#ffffff"
     bordercolor="#666666"
     borderopacity="1"
     objecttolerance="10"
     gridtolerance="10"
     guidetolerance="10"
     inkscape:pageopacity="0"
     inkscape:pageshadow="2"
     inkscape:window-width="1920"
     inkscape:window-height="1172"
     id="namedview80"
     showgrid="false"
     inkscape:zoom="5.9"
     inkscape:cx="61.350268"
     inkscape:cy="14.046725"
     inkscape:window-x="1920"
     inkscape:window-y="0"
     inkscape:window-maximized="1"
     inkscape:current-layer="svg2" />
  <defs
     id="defs4" />
  <path
     style="fill:none;fill-rule:evenodd;stroke:#000000;stroke-width:1px;stroke-linecap:butt;stroke-linejoin:miter;stroke-opacity:1"
     d="M 5.1534901,75.206056 25.76745,59.38604"
     id="path3480"
     inkscape:connector-curvature="0"
     sodipodi:nodetypes="cc" />
  <polygon
     transform="translate(0.25147,39.966358)"
     style="fill:#ffffff;stroke:#000000;stroke-width:1"
     id="polygon78-3"
     points="5.3473,36.9696 5,37 4.6527,36.9696 4.31596,36.8794 4,36.7321 3.71442,36.5321 3.46791,36.2856 3.26795,36 3.12061,35.684 3.03038,35.3473 3,35 3.03038,34.6527 3.12061,34.316 3.26795,34 3.46791,33.7144 3.71442,33.4679 4,33.2679 4.31596,33.1206 4.6527,33.0304 5,33 5.3473,33.0304 5.68404,33.1206 6,33.2679 6.28558,33.4679 6.53209,33.7144 6.73205,34 6.87939,34.316 6.96962,34.6527 7,35 7,35 6.96962,35.3473 6.87939,35.684 6.73205,36 6.53209,36.2856 6.28558,36.5321 6,36.7321 5.68404,36.8794 " />
  <path
     style="fill:none;fill-rule:evenodd;stroke:#000000;stroke-width:1px;stroke-linecap:butt;stroke-linejoin:miter;stroke-opacity:1"
     d="M 4.7939443,35.056772 19.055929,31.221617 41.227921,43.086629 75.74432,64.899076"
     id="path3482"
     inkscape:connector-curvature="0" />
  <polygon
     transform="translate(70.842299,30.258622)"
     style="fill:#ffffff;stroke:#000000;stroke-width:1"
     id="polygon78-6"
     points="5.3473,36.9696 5,37 4.6527,36.9696 4.31596,36.8794 4,36.7321 3.71442,36.5321 3.46791,36.2856 3.26795,36 3.12061,35.684 3.03038,35.3473 3,35 3.03038,34.6527 3.12061,34.316 3.26795,34 3.46791,33.7144 3.71442,33.4679 4,33.2679 4.31596,33.1206 4.6527,33.0304 5,33 5.3473,33.0304 5.68404,33.1206 6,33.2679 6.28558,33.4679 6.53209,33.7144 6.73205,34 6.87939,34.316 6.96962,34.6527 7,35 7,35 6.96962,35.3473 6.87939,35.684 6.73205,36 6.53209,36.2856 6.28558,36.5321 6,36.7321 5.68404,36.8794 " />
  <polygon
     style="fill:#ffffff;stroke:#000000;stroke-width:1"
     id="polygon78"
     points="6.87939,35.684 6.73205,36 6.53209,36.2856 6.28558,36.5321 6,36.7321 5.68404,36.8794 5.3473,36.9696 5,37 4.6527,36.9696 4.31596,36.8794 4,36.7321 3.71442,36.5321 3.46791,36.2856 3.26795,36 3.12061,35.684 3.03038,35.3473 3,35 3.03038,34.6527 3.12061,34.316 3.26795,34 3.46791,33.7144 3.71442,33.4679 4,33.2679 4.31596,33.1206 4.6527,33.0304 5,33 5.3473,33.0304 5.68404,33.1206 6,33.2679 6.28558,33.4679 6.53209,33.7144 6.73205,34 6.87939,34.316 6.96962,34.6527 7,35 7,35 6.96962,35.3473 " />
  <path
     style="fill:none;fill-rule:evenodd;stroke:#000000;stroke-width:1px;stroke-linecap:butt;stroke-linejoin:miter;stroke-opacity:1"
     d="M 25.647602,59.505888 40.868375,42.607235 53.572327,6.6526525 85.452057,9.8885649"
     id="path3484"
     inkscape:connector-curvature="0" />
  <polygon
     transform="translate(80.669886,-25.111435)"
     style="fill:#ffffff;stroke:#000000;stroke-width:1"
     id="polygon78-7"
     points="5.3473,36.9696 5,37 4.6527,36.9696 4.31596,36.8794 4,36.7321 3.71442,36.5321 3.46791,36.2856 3.26795,36 3.12061,35.684 3.03038,35.3473 3,35 3.03038,34.6527 3.12061,34.316 3.26795,34 3.46791,33.7144 3.71442,33.4679 4,33.2679 4.31596,33.1206 4.6527,33.0304 5,33 5.3473,33.0304 5.68404,33.1206 6,33.2679 6.28558,33.4679 6.53209,33.7144 6.73205,34 6.87939,34.316 6.96962,34.6527 7,35 7,35 6.96962,35.3473 6.87939,35.684 6.73205,36 6.53209,36.2856 6.28558,36.5321 6,36.7321 5.68404,36.8794 " />
  <text
     xml:space="preserve"
     style="font-style:normal;font-weight:normal;font-size:40px;line-height:125%;font-family:sans-serif;letter-spacing:0px;word-spacing:0px;fill:#000000;fill-opacity:1;stroke:none;stroke-width:1px;stroke-linecap:butt;stroke-linejoin:miter;stroke-opacity:1"
     x="25.288055"
     y="63.700588"
     id="text3486"
     sodipodi:linespacing="125%"><tspan
       sodipodi:role="line"
       id="tspan3488"
       x="25.288055"
       y="63.700588" /></text>
  <text
     xml:space="preserve"
     style="font-style:normal;font-weight:normal;font-size:3.75px;line-height:125%;font-family:sans-serif;letter-spacing:0px;word-spacing:0px;fill:#000000;fill-opacity:1;stroke:none;stroke-width:1px;stroke-linecap:butt;stroke-linejoin:miter;stroke-opacity:1"
     x="22.41169"
     y="66.81665"
     id="text3490"
     sodipodi:linespacing="125%"><tspan
       sodipodi:role="line"
       id="tspan3492"
       x="22.41169"
       y="66.81665">A, B, C</tspan></text>
  <text
     xml:space="preserve"
     style="font-style:normal;font-weight:normal;font-size:3.75px;line-height:125%;font-family:sans-serif;letter-spacing:0px;word-spacing:0px;fill:#000000;fill-opacity:1;stroke:none;stroke-width:1px;stroke-linecap:butt;stroke-linejoin:miter;stroke-opacity:1"
     x="21.507965"
     y="30.1182"
     id="text3490-9"
     sodipodi:linespacing="125%"><tspan
       sodipodi:role="line"
       id="tspan3492-1"
       x="21.507965"
       y="30.1182">C</tspan></text>
  <text
     xml:space="preserve"
     style="font-style:normal;font-weight:normal;font-size:3.75px;line-height:125%;font-family:sans-serif;letter-spacing:0px;word-spacing:0px;fill:#000000;fill-opacity:1;stroke:none;stroke-width:1px;stroke-linecap:butt;stroke-linejoin:miter;stroke-opacity:1"
     x="56.144215"
     y="50.612312"
     id="text3490-2"
     sodipodi:linespacing="125%"><tspan
       sodipodi:role="line"
       id="tspan3492-7"
       x="56.144215"
       y="50.612312">B, D</tspan></text>
  <text
     xml:space="preserve"
     style="font-style:normal;font-weight:normal;font-size:3.75px;line-height:125%;font-family:sans-serif;letter-spacing:0px;word-spacing:0px;fill:#000000;fill-opacity:1;stroke:none;stroke-width:1px;stroke-linecap:butt;stroke-linejoin:miter;stroke-opacity:1"
     x="68.392281"
     y="13.554373"
     id="text3490-2-0"
     sodipodi:linespacing="125%"><tspan
       sodipodi:role="line"
       id="tspan3492-7-9"
       x="68.392281"
       y="13.554373">A, D</tspan></text>
</svg>
