<?xml version="1.0" encoding="UTF-8" standalone="no"?>
<svg
   xmlns:dc="http://purl.org/dc/elements/1.1/"
   xmlns:cc="http://creativecommons.org/ns#"
   xmlns:rdf="http://www.w3.org/1999/02/22-rdf-syntax-ns#"
   xmlns:svg="http://www.w3.org/2000/svg"
   xmlns="http://www.w3.org/2000/svg"
   xmlns:sodipodi="http://sodipodi.sourceforge.net/DTD/sodipodi-0.dtd"
   xmlns:inkscape="http://www.inkscape.org/namespaces/inkscape"
   width="66.097252mm"
   height="104.8295mm"
   viewBox="0 0 780.67622 1238.1456"
   version="1.2"
   id="svg2"
   inkscape:version="0.91 r13725"
   sodipodi:docname="chicago_linegraph.svg">
  <metadata
     id="metadata192">
    <rdf:RDF>
      <cc:Work
         rdf:about="">
        <dc:format>image/svg+xml</dc:format>
        <dc:type
           rdf:resource="http://purl.org/dc/dcmitype/StillImage" />
        <dc:title></dc:title>
      </cc:Work>
    </rdf:RDF>
  </metadata>
  <sodipodi:namedview
     pagecolor="#ffffff"
     bordercolor="#666666"
     borderopacity="1"
     objecttolerance="10"
     gridtolerance="10"
     guidetolerance="10"
     inkscape:pageopacity="0"
     inkscape:pageshadow="2"
     inkscape:window-width="1920"
     inkscape:window-height="1028"
     id="namedview190"
     showgrid="false"
     inkscape:zoom="1.2688192"
     inkscape:cx="84.367435"
     inkscape:cy="183.69244"
     inkscape:window-x="0"
     inkscape:window-y="20"
     inkscape:window-maximized="1"
     inkscape:current-layer="g4320"
     fit-margin-top="0"
     fit-margin-left="0"
     fit-margin-right="0"
     fit-margin-bottom="0" />
  <desc
     id="desc4">Generated with Qt</desc>
  <defs
     id="defs6" />
  <g
     id="g4320"
     transform="translate(-2105.3506,-93.133618)">
    <path
       id="path40"
       d="m 2776.9885,1327.8016 32.6719,-90.3375 5.9785,-24.0239 3.0492,-39.95 -1.6296,-88.0481"
       vector-effect="none"
       inkscape:connector-curvature="0"
       style="font-style:normal;font-weight:400;font-size:medium;font-family:Ubuntu;fill:none;fill-rule:evenodd;stroke:#000000;stroke-width:5.4317174;stroke-linecap:square;stroke-linejoin:bevel;stroke-opacity:1"
       sodipodi:nodetypes="ccccc" />
    <path
       id="path42"
       d="m 2716.7835,1327.8816 -7.2082,-354.85156"
       vector-effect="none"
       inkscape:connector-curvature="0"
       style="font-style:normal;font-weight:400;font-size:medium;font-family:Ubuntu;fill:none;fill-rule:evenodd;stroke:#000000;stroke-width:5.4317174;stroke-linecap:square;stroke-linejoin:bevel;stroke-opacity:1" />
    <path
       id="path44"
       d="m 2709.5753,973.03004 -4.5389,-223.70431"
       vector-effect="none"
       inkscape:connector-curvature="0"
       style="font-style:normal;font-weight:400;font-size:medium;font-family:Ubuntu;fill:none;fill-rule:evenodd;stroke:#000000;stroke-width:5.4317174;stroke-linecap:square;stroke-linejoin:bevel;stroke-opacity:1" />
    <path
       id="path46"
       d="m 2705.0364,749.32573 -7.1182,-350.5927"
       vector-effect="none"
       inkscape:connector-curvature="0"
       style="font-style:normal;font-weight:400;font-size:medium;font-family:Ubuntu;fill:none;fill-rule:evenodd;stroke:#000000;stroke-width:5.4317174;stroke-linecap:square;stroke-linejoin:bevel;stroke-opacity:1" />
    <path
       id="path48"
       d="M 2697.9182,398.73303 2691.1454,95.909524"
       vector-effect="none"
       inkscape:connector-curvature="0"
       style="font-style:normal;font-weight:400;font-size:medium;font-family:Ubuntu;fill:none;fill-rule:evenodd;stroke:#000000;stroke-width:5.4317174;stroke-linecap:square;stroke-linejoin:bevel;stroke-opacity:1"
       sodipodi:nodetypes="cc" />
    <path
       id="path54"
       d="m 2813.4494,1084.8723 -134.3465,3.5091"
       vector-effect="none"
       inkscape:connector-curvature="0"
       style="font-style:normal;font-weight:400;font-size:medium;font-family:Ubuntu;fill:none;fill-rule:evenodd;stroke:#000000;stroke-width:5.4317174;stroke-linecap:square;stroke-linejoin:bevel;stroke-opacity:1" />
    <path
       id="path56"
       d="m 2505.3062,331.62983 83.1093,0.95971"
       vector-effect="none"
       inkscape:connector-curvature="0"
       style="font-style:normal;font-weight:400;font-size:medium;font-family:Ubuntu;fill:none;fill-rule:evenodd;stroke:#000000;stroke-width:5.4317174;stroke-linecap:square;stroke-linejoin:bevel;stroke-opacity:1" />
    <path
       id="path58"
       d="m 2701.4174,333.73923 22.8942,0.26 57.2558,0.6398 11.4371,0.4199 6.4884,6.8083 0.28,11.4572 0.5498,22.8942 0.27,11.4472 1.0998,45.78861 0.25,10.20748"
       vector-effect="none"
       inkscape:connector-curvature="0"
       style="font-style:normal;font-weight:400;font-size:medium;font-family:Ubuntu;fill:none;fill-rule:evenodd;stroke:#000000;stroke-width:5.4317174;stroke-linecap:square;stroke-linejoin:bevel;stroke-opacity:1" />
    <path
       id="path60"
       d="m 2801.9423,443.66192 0.28,11.55712 0.27,11.54708 0.5598,23.1042 0.28,11.55722 0.28,11.54709 0.27,11.55712 0.5599,23.1043 0.28,11.54708 0.5499,23.1142 0.28,11.54709 0.28,11.55722 0.5599,23.1042 0.27,11.54708 0.28,11.55722 0.28,11.54709 0.28,11.55711 0.5499,23.10431 0.5599,23.1042 0.28,11.55708 0.27,11.54712 0.5599,23.10427 1.1097,46.21851 0.5599,23.1042 0.5498,23.1043 0.2,8.12791"
       vector-effect="none"
       inkscape:connector-curvature="0"
       style="font-style:normal;font-weight:400;font-size:medium;font-family:Ubuntu;fill:none;fill-rule:evenodd;stroke:#000000;stroke-width:5.4317174;stroke-linecap:square;stroke-linejoin:bevel;stroke-opacity:1" />
    <path
       id="path62"
       d="m 2811.7999,869.42585 0.5498,23.0443 0.27,11.51708 0.8098,34.56142 0.27,11.52709 0.27,11.51722 0.5399,23.04416 0.27,11.51712 0.27,11.51716 0.27,11.5272 0.5398,23.0343 0.5399,23.0442 0.19,11.5071 -1.2797,8.338"
       vector-effect="none"
       inkscape:connector-curvature="0"
       style="font-style:normal;font-weight:400;font-size:medium;font-family:Ubuntu;fill:none;fill-rule:evenodd;stroke:#000000;stroke-width:5.4317174;stroke-linecap:square;stroke-linejoin:bevel;stroke-opacity:1" />
    <path
       id="path64"
       d="m 2675.5838,1089.2212 -11.5571,0.19 -23.1043,0.3899 -11.5571,0.2 -11.5571,0.2 -11.5571,0.19 -11.5572,0.17 -11.5471,0.18 -23.1142,0.3499 -11.5572,0.18 -11.5571,0.17 -23.1042,0.3499 -11.5571,0.18 -53.5267,0.8197"
       vector-effect="none"
       inkscape:connector-curvature="0"
       style="font-style:normal;font-weight:400;font-size:medium;font-family:Ubuntu;fill:none;fill-rule:evenodd;stroke:#000000;stroke-width:5.4317174;stroke-linecap:square;stroke-linejoin:bevel;stroke-opacity:1" />
    <path
       id="path66"
       d="m 2448.7303,1092.7902 -11.4972,0.17 -34.4914,0.5299 -45.9885,0.6998 -11.4871,-0.24 -9.4877,-6.0984 -8.5179,-7.6782 -3.0692,-10.4573 -0.2099,-11.4972 -0.22,-11.497 -0.6498,-34.4916 -0.4299,-22.99417 -0.22,-11.49718 -0.2099,-11.49712 -0.6698,-35.53119"
       vector-effect="none"
       inkscape:connector-curvature="0"
       style="font-style:normal;font-weight:400;font-size:medium;font-family:Ubuntu;fill:none;fill-rule:evenodd;stroke:#000000;stroke-width:5.4317174;stroke-linecap:square;stroke-linejoin:bevel;stroke-opacity:1" />
    <path
       id="path68"
       d="m 2321.582,930.71054 -0.8698,-46.2184 -0.22,-11.54719 -0.4299,-23.1142 -0.4399,-23.1043 -0.6498,-34.67132 -0.2199,-11.54709 -0.4299,-23.1143 -0.4399,-23.1042 -0.21,-11.55719 -0.2199,-11.55712 -0.4399,-23.1042 -0.21,-11.55708 -1.6595,-87.95811"
       vector-effect="none"
       inkscape:connector-curvature="0"
       style="font-style:normal;font-weight:400;font-size:medium;font-family:Ubuntu;fill:none;fill-rule:evenodd;stroke:#000000;stroke-width:5.4317174;stroke-linecap:square;stroke-linejoin:bevel;stroke-opacity:1" />
    <path
       id="path70"
       d="m 2315.2035,587.74604 -4.9687,-258.99551"
       vector-effect="none"
       inkscape:connector-curvature="0"
       style="font-style:normal;font-weight:400;font-size:medium;font-family:Ubuntu;fill:none;fill-rule:evenodd;stroke:#000000;stroke-width:5.4317174;stroke-linecap:square;stroke-linejoin:bevel;stroke-opacity:1" />
    <path
       id="path82"
       d="m 2588.4155,332.48954 9.3277,0.1 11.5571,0.13 11.5571,0.13 34.6614,0.37989 23.1142,0.2599 11.5571,0.13 11.2273,0.1199"
       vector-effect="none"
       inkscape:connector-curvature="0"
       style="font-style:normal;font-weight:400;font-size:medium;font-family:Ubuntu;fill:none;fill-rule:evenodd;stroke:#000000;stroke-width:5.4317174;stroke-linecap:square;stroke-linejoin:bevel;stroke-opacity:1" />
    <path
       id="path84"
       d="m 2588.3855,335.23893 0.03,0 2.5694,10.6473 0.8297,11.4571 0.28,11.4972 0.5298,23.0043 0.26,11.4971 0.26,11.4971 0.26,11.4972 0.5298,23.0042 0.26,11.49722 0.5298,23.0042 0.26,11.49718 0.26,11.49709 0.8598,37.61062"
       vector-effect="none"
       inkscape:connector-curvature="0"
       style="font-style:normal;font-weight:400;font-size:medium;font-family:Ubuntu;fill:none;fill-rule:evenodd;stroke:#000000;stroke-width:5.4317174;stroke-linecap:square;stroke-linejoin:bevel;stroke-opacity:1" />
    <path
       id="path90"
       d="m 2605.9111,973.61994 0.5199,22.9842 0.27,11.49716 0.26,11.4972 0.26,11.497 0.26,11.4873 0.5299,22.9943 0.26,11.497 0.27,11.4872 0.7798,34.4913 0.5299,22.9843 0.26,11.4973 -0.33,11.397 -3.1492,10.8873 -3.7891,10.7773 -9.2177,5.0689 -11.4172,1.0597 -11.4371,0.8198 -45.9586,1.4296 -34.4714,1.0698 -22.9743,0.7198 -11.4971,0.3499 -1.3996,0.05"
       vector-effect="none"
       inkscape:connector-curvature="0"
       style="font-style:normal;font-weight:400;font-size:medium;font-family:Ubuntu;fill:none;fill-rule:evenodd;stroke:#000000;stroke-width:5.4317174;stroke-linecap:square;stroke-linejoin:bevel;stroke-opacity:1" />
    <path
       id="path92"
       d="m 2454.3668,1201.2605 -13.2893,0.2797 -53.1795,0.3914 -26.5898,0.1864 -13.3006,0.1025 -13.3006,0.093 -13.2892,0.1026 -13.3007,0.093 -13.3006,0.1025 -26.5898,0.1958 -106.3706,0.7734 -53.1796,0.3914"
       vector-effect="none"
       inkscape:connector-curvature="0"
       style="font-style:normal;font-weight:400;font-size:medium;font-family:Ubuntu;fill:none;fill-rule:evenodd;stroke:#000000;stroke-width:5.62583017;stroke-linecap:square;stroke-linejoin:bevel;stroke-opacity:1"
       sodipodi:nodetypes="cccccccccccc" />
    <path
       id="path96"
       d="m 2596.1036,544.44674 0.7898,34.65139 0.27,11.54712 0.26,11.55718 0.5298,23.1042 0.26,11.54709 0.27,11.54722 0.26,11.55708 0.27,11.54712 0.26,11.54708 0.26,11.55712 0.27,11.54719 0.5298,23.1042 0.26,11.54712 0.26,11.55718 0.1,4.30891"
       vector-effect="none"
       inkscape:connector-curvature="0"
       style="font-style:normal;font-weight:400;font-size:medium;font-family:Ubuntu;fill:none;fill-rule:evenodd;stroke:#000000;stroke-width:5.4317174;stroke-linecap:square;stroke-linejoin:bevel;stroke-opacity:1" />
    <path
       id="path98"
       d="m 2600.9524,756.67394 0.27,11.54708 0.5199,23.10431 0.27,11.54711 0.26,11.54709 1.5896,69.31271 0.7899,34.65142 0.26,11.54708 0.26,11.55718 0.27,11.54712 0.26,11.54709 0.21,9.03781"
       vector-effect="none"
       inkscape:connector-curvature="0"
       style="font-style:normal;font-weight:400;font-size:medium;font-family:Ubuntu;fill:none;fill-rule:evenodd;stroke:#000000;stroke-width:5.4317174;stroke-linecap:square;stroke-linejoin:bevel;stroke-opacity:1" />
    <path
       id="path102"
       d="m 2319.6124,329.52033 11.4372,0.11 11.4271,0.1099 34.3115,0.32991 22.8743,0.22 11.4372,0.11 11.4371,0.1099 22.8743,0.22 11.4372,0.11 45.1487,0.4398"
       vector-effect="none"
       inkscape:connector-curvature="0"
       style="font-style:normal;font-weight:400;font-size:medium;font-family:Ubuntu;fill:none;fill-rule:evenodd;stroke:#000000;stroke-width:5.4317174;stroke-linecap:square;stroke-linejoin:bevel;stroke-opacity:1" />
    <path
       id="path104"
       d="m 2310.9346,327.55083 -1.1097,-10.82733 -1.0598,-57.49568 -0.2099,-11.50714 -0.21,-11.49713 -0.2099,-11.50714 -0.4199,-22.99427 -0.2099,-11.50713 -0.21,-11.49614 -0.8398,-46.00254 -0.4199,-23.00128 -0.2099,-11.501126"
       vector-effect="none"
       inkscape:connector-curvature="0"
       style="font-style:normal;font-weight:400;font-size:medium;font-family:Ubuntu;fill:none;fill-rule:evenodd;stroke:#000000;stroke-width:5.4317174;stroke-linecap:square;stroke-linejoin:bevel;stroke-opacity:1"
       sodipodi:nodetypes="cccccccccccc" />
    <path
       id="path106"
       d="m 2108.1253,326.43333 201.5996,4.6666"
       vector-effect="none"
       inkscape:connector-curvature="0"
       style="font-style:normal;font-weight:400;font-size:medium;font-family:Ubuntu;fill:none;fill-rule:evenodd;stroke:#000000;stroke-width:5.4317174;stroke-linecap:square;stroke-linejoin:bevel;stroke-opacity:1"
       sodipodi:nodetypes="cc" />
    <path
       id="path112"
       d="m 2728.4706,973.03004 c 0,10.43742 -8.4579,18.8953 -18.8953,18.8953 -10.4274,0 -18.8853,-8.45788 -18.8853,-18.8953 0,-10.43742 8.4579,-18.8953 18.8853,-18.8953 10.4374,0 18.8953,8.45788 18.8953,18.8953"
       vector-effect="non-scaling-stroke"
       inkscape:connector-curvature="0"
       style="font-style:normal;font-weight:400;font-size:medium;font-family:Ubuntu;fill:#ffffff;fill-opacity:1;fill-rule:evenodd;stroke:#000000;stroke-width:0.99975097;stroke-linecap:square;stroke-linejoin:bevel;stroke-opacity:1" />
    <path
       id="path114"
       d="m 2723.9317,749.32573 c 0,10.43741 -8.4579,18.89529 -18.8953,18.89529 -10.4374,0 -18.8952,-8.45788 -18.8952,-18.89529 0,-10.43739 8.4578,-18.8953 18.8952,-18.8953 10.4374,0 18.8953,8.45791 18.8953,18.8953"
       vector-effect="non-scaling-stroke"
       inkscape:connector-curvature="0"
       style="font-style:normal;font-weight:400;font-size:medium;font-family:Ubuntu;fill:#ffffff;fill-opacity:1;fill-rule:evenodd;stroke:#000000;stroke-width:0.99975097;stroke-linecap:square;stroke-linejoin:bevel;stroke-opacity:1" />
    <path
       id="path116"
       d="m 2716.8035,398.73303 c 0,10.4374 -8.4579,18.8953 -18.8853,18.8953 -10.4374,0 -18.8953,-8.4579 -18.8953,-18.8953 0,-10.4274 8.4579,-18.8853 18.8953,-18.8853 10.4274,0 18.8853,8.4579 18.8853,18.8853"
       vector-effect="non-scaling-stroke"
       inkscape:connector-curvature="0"
       style="font-style:normal;font-weight:400;font-size:medium;font-family:Ubuntu;fill:#ffffff;fill-opacity:1;fill-rule:evenodd;stroke:#000000;stroke-width:0.99975097;stroke-linecap:square;stroke-linejoin:bevel;stroke-opacity:1" />
    <path
       id="path122"
       d="m 2834.1643,1085.1422 c 0,10.4373 -8.4579,18.8952 -18.8953,18.8952 -10.4274,0 -18.8853,-8.4579 -18.8853,-18.8952 0,-10.4275 8.4579,-18.8853 18.8853,-18.8853 10.4374,0 18.8953,8.4578 18.8953,18.8853"
       vector-effect="non-scaling-stroke"
       inkscape:connector-curvature="0"
       style="font-style:normal;font-weight:400;font-size:medium;font-family:Ubuntu;fill:#ffffff;fill-opacity:1;fill-rule:evenodd;stroke:#000000;stroke-width:0.99975097;stroke-linecap:square;stroke-linejoin:bevel;stroke-opacity:1" />
    <path
       id="path126"
       d="m 2720.3126,333.73923 c 0,10.4374 -8.4678,18.8953 -18.8952,18.8953 -10.4375,0 -18.8953,-8.4579 -18.8953,-18.8953 0,-10.4274 8.4578,-18.88527 18.8953,-18.88527 10.4274,0 18.8952,8.45787 18.8952,18.88527"
       vector-effect="non-scaling-stroke"
       inkscape:connector-curvature="0"
       style="font-style:normal;font-weight:400;font-size:medium;font-family:Ubuntu;fill:#ffffff;fill-opacity:1;fill-rule:evenodd;stroke:#000000;stroke-width:0.99975097;stroke-linecap:square;stroke-linejoin:bevel;stroke-opacity:1" />
    <path
       id="path128"
       d="m 2820.8376,443.66192 c 0,10.43742 -8.4579,18.8952 -18.8953,18.8952 -10.4374,0 -18.8953,-8.45778 -18.8953,-18.8952 0,-10.43738 8.4579,-18.89529 18.8953,-18.89529 10.4374,0 18.8953,8.45791 18.8953,18.89529"
       vector-effect="non-scaling-stroke"
       inkscape:connector-curvature="0"
       style="font-style:normal;font-weight:400;font-size:medium;font-family:Ubuntu;fill:#ffffff;fill-opacity:1;fill-rule:evenodd;stroke:#000000;stroke-width:0.99975097;stroke-linecap:square;stroke-linejoin:bevel;stroke-opacity:1" />
    <path
       id="path130"
       d="m 2830.8651,868.55605 c 0,10.43738 -8.4579,18.89529 -18.8953,18.89529 -10.4274,0 -18.8953,-8.45791 -18.8953,-18.89529 0,-10.43742 8.4679,-18.8953 18.8953,-18.8953 10.4374,0 18.8953,8.45788 18.8953,18.8953"
       vector-effect="non-scaling-stroke"
       inkscape:connector-curvature="0"
       style="font-style:normal;font-weight:400;font-size:medium;font-family:Ubuntu;fill:#ffffff;fill-opacity:1;fill-rule:evenodd;stroke:#000000;stroke-width:0.99975097;stroke-linecap:square;stroke-linejoin:bevel;stroke-opacity:1" />
    <path
       id="path132"
       d="m 2696.2386,1088.8013 c 0,10.4373 -8.4579,18.8953 -18.8953,18.8953 -10.4374,0 -18.8952,-8.458 -18.8952,-18.8953 0,-10.4375 8.4578,-18.8953 18.8952,-18.8953 10.4374,0 18.8953,8.4578 18.8953,18.8953"
       vector-effect="non-scaling-stroke"
       inkscape:connector-curvature="0"
       style="font-style:normal;font-weight:400;font-size:medium;font-family:Ubuntu;fill:#ffffff;fill-opacity:1;fill-rule:evenodd;stroke:#000000;stroke-width:0.99975097;stroke-linecap:square;stroke-linejoin:bevel;stroke-opacity:1" />
    <path
       id="path134"
       d="m 2467.6256,1092.7902 c 0,10.4274 -8.4579,18.8854 -18.8953,18.8854 -10.4274,0 -18.8853,-8.458 -18.8853,-18.8854 0,-10.4374 8.4579,-18.8953 18.8853,-18.8953 10.4374,0 18.8953,8.4579 18.8953,18.8953"
       vector-effect="non-scaling-stroke"
       inkscape:connector-curvature="0"
       style="font-style:normal;font-weight:400;font-size:medium;font-family:Ubuntu;fill:#ffffff;fill-opacity:1;fill-rule:evenodd;stroke:#000000;stroke-width:0.99975097;stroke-linecap:square;stroke-linejoin:bevel;stroke-opacity:1" />
    <path
       id="path136"
       d="m 2340.4772,930.71054 c 0,10.43738 -8.4578,18.8953 -18.8952,18.8953 -10.4374,0 -18.8953,-8.45792 -18.8953,-18.8953 0,-10.42741 8.4579,-18.88529 18.8953,-18.88529 10.4374,0 18.8952,8.45788 18.8952,18.88529"
       vector-effect="non-scaling-stroke"
       inkscape:connector-curvature="0"
       style="font-style:normal;font-weight:400;font-size:medium;font-family:Ubuntu;fill:#ffffff;fill-opacity:1;fill-rule:evenodd;stroke:#000000;stroke-width:0.99975097;stroke-linecap:square;stroke-linejoin:bevel;stroke-opacity:1" />
    <path
       id="path138"
       d="m 2334.0688,588.15594 c 0,10.42739 -8.4579,18.8853 -18.8953,18.8853 -10.4374,0 -18.8952,-8.45791 -18.8952,-18.8853 0,-10.43741 8.4578,-18.89529 18.8952,-18.89529 10.4374,0 18.8953,8.45788 18.8953,18.89529"
       vector-effect="non-scaling-stroke"
       inkscape:connector-curvature="0"
       style="font-style:normal;font-weight:400;font-size:medium;font-family:Ubuntu;fill:#ffffff;fill-opacity:1;fill-rule:evenodd;stroke:#000000;stroke-width:0.99975097;stroke-linecap:square;stroke-linejoin:bevel;stroke-opacity:1" />
    <path
       id="path148"
       d="m 2607.3008,333.43933 c 0,10.4374 -8.4579,18.8953 -18.8953,18.8953 -10.4374,0 -18.8953,-8.4579 -18.8953,-18.8953 0,-10.4374 8.4579,-18.89529 18.8953,-18.89529 10.4374,0 18.8953,8.45789 18.8953,18.89529"
       vector-effect="non-scaling-stroke"
       inkscape:connector-curvature="0"
       style="font-style:normal;font-weight:400;font-size:medium;font-family:Ubuntu;fill:#ffffff;fill-opacity:1;fill-rule:evenodd;stroke:#000000;stroke-width:0.99975097;stroke-linecap:square;stroke-linejoin:bevel;stroke-opacity:1" />
    <path
       id="path152"
       d="m 2624.8064,973.61994 c 0,10.43738 -8.4579,18.8953 -18.8953,18.8953 -10.4374,0 -18.8953,-8.45792 -18.8953,-18.8953 0,-10.43742 8.4579,-18.89529 18.8953,-18.89529 10.4374,0 18.8953,8.45787 18.8953,18.89529"
       vector-effect="non-scaling-stroke"
       inkscape:connector-curvature="0"
       style="font-style:normal;font-weight:400;font-size:medium;font-family:Ubuntu;fill:#ffffff;fill-opacity:1;fill-rule:evenodd;stroke:#000000;stroke-width:0.99975097;stroke-linecap:square;stroke-linejoin:bevel;stroke-opacity:1" />
    <path
       id="path154"
       d="m 2473.3641,1201.1633 c 0,10.4273 -8.4578,18.8853 -18.8952,18.8853 -10.4274,0 -18.8853,-8.458 -18.8853,-18.8853 0,-10.4375 8.4579,-18.8954 18.8853,-18.8954 10.4374,0 18.8952,8.4579 18.8952,18.8954"
       vector-effect="non-scaling-stroke"
       inkscape:connector-curvature="0"
       style="font-style:normal;font-weight:400;font-size:medium;font-family:Ubuntu;fill:#ffffff;fill-opacity:1;fill-rule:evenodd;stroke:#000000;stroke-width:0.99975097;stroke-linecap:square;stroke-linejoin:bevel;stroke-opacity:1" />
    <path
       id="path158"
       d="m 2614.9989,544.44674 c 0,10.43739 -8.4579,18.8953 -18.8953,18.8953 -10.4274,0 -18.8853,-8.45791 -18.8853,-18.8953 0,-10.43741 8.4579,-18.89519 18.8853,-18.89519 10.4374,0 18.8953,8.45778 18.8953,18.89519"
       vector-effect="non-scaling-stroke"
       inkscape:connector-curvature="0"
       style="font-style:normal;font-weight:400;font-size:medium;font-family:Ubuntu;fill:#ffffff;fill-opacity:1;fill-rule:evenodd;stroke:#000000;stroke-width:0.99975097;stroke-linecap:square;stroke-linejoin:bevel;stroke-opacity:1" />
    <path
       id="path160"
       d="m 2619.8477,756.67394 c 0,10.42738 -8.4579,18.88529 -18.8953,18.88529 -10.4274,0 -18.8953,-8.45791 -18.8953,-18.88529 0,-10.43742 8.4679,-18.8953 18.8953,-18.8953 10.4374,0 18.8953,8.45788 18.8953,18.8953"
       vector-effect="non-scaling-stroke"
       inkscape:connector-curvature="0"
       style="font-style:normal;font-weight:400;font-size:medium;font-family:Ubuntu;fill:#ffffff;fill-opacity:1;fill-rule:evenodd;stroke:#000000;stroke-width:0.99975097;stroke-linecap:square;stroke-linejoin:bevel;stroke-opacity:1" />
    <path
       id="path164"
       d="m 2331.5195,329.23043 c 0,10.4374 -8.4579,18.8952 -18.8953,18.8952 -10.4374,0 -18.8953,-8.4578 -18.8953,-18.8952 0,-10.43745 8.4579,-18.89534 18.8953,-18.89534 10.4374,0 18.8953,8.45789 18.8953,18.89534"
       vector-effect="non-scaling-stroke"
       inkscape:connector-curvature="0"
       style="font-style:normal;font-weight:400;font-size:medium;font-family:Ubuntu;fill:#ffffff;fill-opacity:1;fill-rule:evenodd;stroke:#000000;stroke-width:0.99975097;stroke-linecap:square;stroke-linejoin:bevel;stroke-opacity:1" />
    <circle
       style="opacity:1;fill:#784421;fill-opacity:1;stroke:#ff0000;stroke-width:0;stroke-linecap:butt;stroke-miterlimit:4;stroke-dasharray:none;stroke-opacity:1"
       id="path4570"
       cx="2253.0757"
       cy="443.40088"
       r="14.861227" />
    <circle
       style="opacity:1;fill:#000080;fill-opacity:1;stroke:#ff0000;stroke-width:0;stroke-linecap:butt;stroke-miterlimit:4;stroke-dasharray:none;stroke-opacity:1"
       id="path4570-3"
       cx="2286.9377"
       cy="443.63065"
       r="14.861227" />
    <circle
       style="opacity:1;fill:#ff6600;fill-opacity:1;stroke:#ff0000;stroke-width:0;stroke-linecap:butt;stroke-miterlimit:4;stroke-dasharray:none;stroke-opacity:1"
       id="path4570-6"
       cx="2253.0784"
       cy="476.47668"
       r="14.861227" />
    <circle
       style="opacity:1;fill:#ff8080;fill-opacity:1;stroke:#ff0000;stroke-width:0;stroke-linecap:butt;stroke-miterlimit:4;stroke-dasharray:none;stroke-opacity:1"
       id="path4570-3-7"
       cx="2286.9402"
       cy="476.70645"
       r="14.861227" />
    <circle
       style="opacity:1;fill:#784421;fill-opacity:1;stroke:#ff0000;stroke-width:0;stroke-linecap:butt;stroke-miterlimit:4;stroke-dasharray:none;stroke-opacity:1"
       id="path4570-5"
       cx="2257.3625"
       cy="735.74634"
       r="14.861227" />
    <circle
       style="opacity:1;fill:#000080;fill-opacity:1;stroke:#ff0000;stroke-width:0;stroke-linecap:butt;stroke-miterlimit:4;stroke-dasharray:none;stroke-opacity:1"
       id="path4570-3-3"
       cx="2291.2246"
       cy="735.97614"
       r="14.861227" />
    <circle
       style="opacity:1;fill:#ff6600;fill-opacity:1;stroke:#ff0000;stroke-width:0;stroke-linecap:butt;stroke-miterlimit:4;stroke-dasharray:none;stroke-opacity:1"
       id="path4570-6-5"
       cx="2257.3652"
       cy="768.8222"
       r="14.861227" />
    <circle
       style="opacity:1;fill:#ff8080;fill-opacity:1;stroke:#ff0000;stroke-width:0;stroke-linecap:butt;stroke-miterlimit:4;stroke-dasharray:none;stroke-opacity:1"
       id="path4570-3-7-6"
       cx="2291.2273"
       cy="769.05194"
       r="14.861227" />
    <circle
       style="opacity:1;fill:#784421;fill-opacity:1;stroke:#ff0000;stroke-width:0;stroke-linecap:butt;stroke-miterlimit:4;stroke-dasharray:none;stroke-opacity:1"
       id="path4570-5-2"
       cx="2267.2144"
       cy="1028.67"
       r="14.861227" />
    <circle
       style="opacity:1;fill:#000080;fill-opacity:1;stroke:#ff0000;stroke-width:0;stroke-linecap:butt;stroke-miterlimit:4;stroke-dasharray:none;stroke-opacity:1"
       id="path4570-3-3-9"
       cx="2301.0764"
       cy="1028.8998"
       r="14.861227" />
    <circle
       style="opacity:1;fill:#ff6600;fill-opacity:1;stroke:#ff0000;stroke-width:0;stroke-linecap:butt;stroke-miterlimit:4;stroke-dasharray:none;stroke-opacity:1"
       id="path4570-6-5-1"
       cx="2267.2168"
       cy="1061.7458"
       r="14.861227" />
    <circle
       style="opacity:1;fill:#ff8080;fill-opacity:1;stroke:#ff0000;stroke-width:0;stroke-linecap:butt;stroke-miterlimit:4;stroke-dasharray:none;stroke-opacity:1"
       id="path4570-3-7-6-2"
       cx="2301.0789"
       cy="1061.9756"
       r="14.861227" />
    <circle
       style="opacity:1;fill:#784421;fill-opacity:1;stroke:#ff0000;stroke-width:0;stroke-linecap:butt;stroke-miterlimit:4;stroke-dasharray:none;stroke-opacity:1"
       id="path4570-5-7"
       cx="2512.1931"
       cy="1035.8947"
       r="14.861227" />
    <circle
       style="opacity:1;fill:#000080;fill-opacity:1;stroke:#ff0000;stroke-width:0;stroke-linecap:butt;stroke-miterlimit:4;stroke-dasharray:none;stroke-opacity:1"
       id="path4570-3-3-0"
       cx="2546.0552"
       cy="1036.1245"
       r="14.861227" />
    <circle
       style="opacity:1;fill:#ff6600;fill-opacity:1;stroke:#ff0000;stroke-width:0;stroke-linecap:butt;stroke-miterlimit:4;stroke-dasharray:none;stroke-opacity:1"
       id="path4570-6-5-9"
       cx="2512.1958"
       cy="1068.9705"
       r="14.861227" />
    <circle
       style="opacity:1;fill:#ff8080;fill-opacity:1;stroke:#ff0000;stroke-width:0;stroke-linecap:butt;stroke-miterlimit:4;stroke-dasharray:none;stroke-opacity:1"
       id="path4570-3-7-6-3"
       cx="2546.0576"
       cy="1069.2002"
       r="14.861227" />
    <circle
       style="opacity:1;fill:#784421;fill-opacity:1;stroke:#ff0000;stroke-width:0;stroke-linecap:butt;stroke-miterlimit:4;stroke-dasharray:none;stroke-opacity:1"
       id="path4570-5-6"
       cx="2742.0659"
       cy="1031.954"
       r="14.861227" />
    <circle
       style="opacity:1;fill:#000080;fill-opacity:1;stroke:#ff0000;stroke-width:0;stroke-linecap:butt;stroke-miterlimit:4;stroke-dasharray:none;stroke-opacity:1"
       id="path4570-3-3-06"
       cx="2775.928"
       cy="1032.1837"
       r="14.861227" />
    <circle
       style="opacity:1;fill:#ff6600;fill-opacity:1;stroke:#ff0000;stroke-width:0;stroke-linecap:butt;stroke-miterlimit:4;stroke-dasharray:none;stroke-opacity:1"
       id="path4570-6-5-2"
       cx="2742.0686"
       cy="1065.0298"
       r="14.861227" />
    <circle
       style="opacity:1;fill:#ff8080;fill-opacity:1;stroke:#ff0000;stroke-width:0;stroke-linecap:butt;stroke-miterlimit:4;stroke-dasharray:none;stroke-opacity:1"
       id="path4570-3-7-6-6"
       cx="2775.9304"
       cy="1065.2595"
       r="14.861227" />
    <circle
       style="opacity:1;fill:#784421;fill-opacity:1;stroke:#ff0000;stroke-width:0;stroke-linecap:butt;stroke-miterlimit:4;stroke-dasharray:none;stroke-opacity:1"
       id="path4570-5-1"
       cx="2837.2991"
       cy="917.67438"
       r="14.861227" />
    <circle
       style="opacity:1;fill:#0000ff;fill-opacity:1;stroke:#ff0000;stroke-width:0;stroke-linecap:butt;stroke-miterlimit:4;stroke-dasharray:none;stroke-opacity:1"
       id="path4570-3-3-8"
       cx="2871.1609"
       cy="917.90411"
       r="14.861227" />
    <circle
       style="opacity:1;fill:#ff6600;fill-opacity:1;stroke:#ff0000;stroke-width:0;stroke-linecap:butt;stroke-miterlimit:4;stroke-dasharray:none;stroke-opacity:1"
       id="path4570-6-5-7"
       cx="2837.3015"
       cy="950.75024"
       r="14.861227" />
    <circle
       style="opacity:1;fill:#ff8080;fill-opacity:1;stroke:#ff0000;stroke-width:0;stroke-linecap:butt;stroke-miterlimit:4;stroke-dasharray:none;stroke-opacity:1"
       id="path4570-3-7-6-9"
       cx="2871.1636"
       cy="950.97992"
       r="14.861227" />
    <circle
       style="opacity:1;fill:#008000;fill-opacity:1;stroke:#ff0000;stroke-width:0;stroke-linecap:butt;stroke-miterlimit:4;stroke-dasharray:none;stroke-opacity:1"
       id="path4570-3-7-6-9-2"
       cx="2854.2314"
       cy="982.27216"
       r="14.861227" />
    <circle
       style="opacity:1;fill:#784421;fill-opacity:1;stroke:#ff0000;stroke-width:0;stroke-linecap:butt;stroke-miterlimit:4;stroke-dasharray:none;stroke-opacity:1"
       id="path4570-5-1-0"
       cx="2832.0449"
       cy="622.24017"
       r="14.861227" />
    <circle
       style="opacity:1;fill:#000080;fill-opacity:1;stroke:#ff0000;stroke-width:0;stroke-linecap:butt;stroke-miterlimit:4;stroke-dasharray:none;stroke-opacity:1"
       id="path4570-3-3-8-2"
       cx="2865.9067"
       cy="622.46985"
       r="14.861227" />
    <circle
       style="opacity:1;fill:#ff6600;fill-opacity:1;stroke:#ff0000;stroke-width:0;stroke-linecap:butt;stroke-miterlimit:4;stroke-dasharray:none;stroke-opacity:1"
       id="path4570-6-5-7-3"
       cx="2832.0474"
       cy="655.31592"
       r="14.861227" />
    <circle
       style="opacity:1;fill:#ff8080;fill-opacity:1;stroke:#ff0000;stroke-width:0;stroke-linecap:butt;stroke-miterlimit:4;stroke-dasharray:none;stroke-opacity:1"
       id="path4570-3-7-6-9-7"
       cx="2865.9094"
       cy="655.54572"
       r="14.861227" />
    <circle
       style="opacity:1;fill:#008000;fill-opacity:1;stroke:#ff0000;stroke-width:0;stroke-linecap:butt;stroke-miterlimit:4;stroke-dasharray:none;stroke-opacity:1"
       id="path4570-3-7-6-9-2-5"
       cx="2848.9773"
       cy="686.83795"
       r="14.861227" />
    <circle
       style="opacity:1;fill:#784421;fill-opacity:1;stroke:#ff0000;stroke-width:0;stroke-linecap:butt;stroke-miterlimit:4;stroke-dasharray:none;stroke-opacity:1"
       id="path4570-5-1-9"
       cx="2809.7141"
       cy="280.71469"
       r="14.861227" />
    <circle
       style="opacity:1;fill:#000080;fill-opacity:1;stroke:#ff0000;stroke-width:0;stroke-linecap:butt;stroke-miterlimit:4;stroke-dasharray:none;stroke-opacity:1"
       id="path4570-3-3-8-22"
       cx="2843.5759"
       cy="280.94443"
       r="14.861227" />
    <circle
       style="opacity:1;fill:#ff6600;fill-opacity:1;stroke:#ff0000;stroke-width:0;stroke-linecap:butt;stroke-miterlimit:4;stroke-dasharray:none;stroke-opacity:1"
       id="path4570-6-5-7-8"
       cx="2809.7166"
       cy="313.7905"
       r="14.861227" />
    <circle
       style="opacity:1;fill:#ff8080;fill-opacity:1;stroke:#ff0000;stroke-width:0;stroke-linecap:butt;stroke-miterlimit:4;stroke-dasharray:none;stroke-opacity:1"
       id="path4570-3-7-6-9-9"
       cx="2843.5786"
       cy="314.02023"
       r="14.861227" />
    <circle
       style="opacity:1;fill:#008000;fill-opacity:1;stroke:#ff0000;stroke-width:0;stroke-linecap:butt;stroke-miterlimit:4;stroke-dasharray:none;stroke-opacity:1"
       id="path4570-3-7-6-9-2-7"
       cx="2826.6465"
       cy="345.31241"
       r="14.861227" />
    <circle
       style="opacity:1;fill:#784421;fill-opacity:1;stroke:#ff0000;stroke-width:0;stroke-linecap:butt;stroke-miterlimit:4;stroke-dasharray:none;stroke-opacity:1"
       id="path4570-5-1-3"
       cx="2428.1252"
       cy="352.96048"
       r="14.861227" />
    <circle
       style="opacity:1;fill:#000080;fill-opacity:1;stroke:#ff0000;stroke-width:0;stroke-linecap:butt;stroke-miterlimit:4;stroke-dasharray:none;stroke-opacity:1"
       id="path4570-3-3-8-6"
       cx="2461.9871"
       cy="353.19022"
       r="14.861227" />
    <circle
       style="opacity:1;fill:#ff6600;fill-opacity:1;stroke:#ff0000;stroke-width:0;stroke-linecap:butt;stroke-miterlimit:4;stroke-dasharray:none;stroke-opacity:1"
       id="path4570-6-5-7-1"
       cx="2428.1277"
       cy="386.03641"
       r="14.861227" />
    <circle
       style="opacity:1;fill:#4276ff;fill-opacity:1;stroke:#ff0000;stroke-width:0;stroke-linecap:butt;stroke-miterlimit:4;stroke-dasharray:none;stroke-opacity:1"
       id="path4570-3-7-6-9-29"
       cx="2461.9897"
       cy="386.26602"
       r="14.861227" />
    <circle
       style="opacity:1;fill:#008000;fill-opacity:1;stroke:#ff0000;stroke-width:0;stroke-linecap:butt;stroke-miterlimit:4;stroke-dasharray:none;stroke-opacity:1"
       id="path4570-6-5-7-1-1"
       cx="2427.47"
       cy="419.95389"
       r="14.861227" />
    <circle
       style="opacity:1;fill:#ff8080;fill-opacity:1;stroke:#ff0000;stroke-width:0;stroke-linecap:butt;stroke-miterlimit:4;stroke-dasharray:none;stroke-opacity:1"
       id="path4570-3-7-6-9-29-9"
       cx="2461.3318"
       cy="420.1835"
       r="14.861227" />
    <circle
       style="opacity:1;fill:#4276ff;fill-opacity:1;stroke:#ff0000;stroke-width:0;stroke-linecap:butt;stroke-miterlimit:4;stroke-dasharray:none;stroke-opacity:1"
       id="path4570-3-7-6-9-29-4"
       cx="2615.8203"
       cy="439.77209"
       r="14.861227" />
    <circle
       style="opacity:1;fill:#4276ff;fill-opacity:1;stroke:#ff0000;stroke-width:0;stroke-linecap:butt;stroke-miterlimit:4;stroke-dasharray:none;stroke-opacity:1"
       id="path4570-3-7-6-9-29-7"
       cx="2621.0745"
       cy="656.50934"
       r="14.861227" />
    <circle
       style="opacity:1;fill:#4276ff;fill-opacity:1;stroke:#ff0000;stroke-width:0;stroke-linecap:butt;stroke-miterlimit:4;stroke-dasharray:none;stroke-opacity:1"
       id="path4570-3-7-6-9-29-8"
       cx="2626.3289"
       cy="867.99249"
       r="14.861227" />
    <circle
       style="opacity:1;fill:#4276ff;fill-opacity:1;stroke:#ff0000;stroke-width:0;stroke-linecap:butt;stroke-miterlimit:4;stroke-dasharray:none;stroke-opacity:1"
       id="path4570-3-7-6-9-29-45"
       cx="2582.9814"
       cy="1171.4246"
       r="14.861227" />
    <circle
       style="opacity:1;fill:#4276ff;fill-opacity:1;stroke:#ff0000;stroke-width:0;stroke-linecap:butt;stroke-miterlimit:4;stroke-dasharray:none;stroke-opacity:1"
       id="path4570-3-7-6-9-29-0"
       cx="2290.0576"
       cy="1179.3059"
       r="14.861227" />
    <circle
       style="opacity:1;fill:#ff0000;fill-opacity:1;stroke:#ff0000;stroke-width:0;stroke-linecap:butt;stroke-miterlimit:4;stroke-dasharray:none;stroke-opacity:1"
       id="path4570-3-7-6-9-29-4-3"
       cx="2727.4727"
       cy="569.81451"
       r="14.861227" />
    <circle
       style="opacity:1;fill:#ff0000;fill-opacity:1;stroke:#ff0000;stroke-width:0;stroke-linecap:butt;stroke-miterlimit:4;stroke-dasharray:none;stroke-opacity:1"
       id="path4570-3-7-6-9-29-4-3-6"
       cx="2732.7271"
       cy="861.42462"
       r="14.861227" />
    <circle
       style="opacity:1;fill:#ff0000;fill-opacity:1;stroke:#ff0000;stroke-width:0;stroke-linecap:butt;stroke-miterlimit:4;stroke-dasharray:none;stroke-opacity:1"
       id="path4570-3-7-6-9-29-4-3-1"
       cx="2737.9814"
       cy="1218.7126"
       r="14.861227" />
    <circle
       style="opacity:1;fill:#ff6600;fill-opacity:1;stroke:#ff0000;stroke-width:0;stroke-linecap:butt;stroke-miterlimit:4;stroke-dasharray:none;stroke-opacity:1"
       id="path4570-5-1-06"
       cx="2830.0759"
       cy="1269.8268"
       r="14.861227" />
    <circle
       style="opacity:1;fill:#008000;fill-opacity:1;stroke:#ff0000;stroke-width:0;stroke-linecap:butt;stroke-miterlimit:4;stroke-dasharray:none;stroke-opacity:1"
       id="path4570-3-3-8-3"
       cx="2863.9377"
       cy="1270.0564"
       r="14.861227" />
    <circle
       style="opacity:1;fill:#ff8080;fill-opacity:1;stroke:#ff0000;stroke-width:0;stroke-linecap:butt;stroke-miterlimit:4;stroke-dasharray:none;stroke-opacity:1"
       id="path4570-6-5-7-1-2"
       cx="2136.8452"
       cy="353.19464"
       r="14.861227" />
    <circle
       style="opacity:1;fill:#4276ff;fill-opacity:1;stroke:#ff0000;stroke-width:0;stroke-linecap:butt;stroke-miterlimit:4;stroke-dasharray:none;stroke-opacity:1"
       id="path4570-3-7-6-9-29-06"
       cx="2170.7073"
       cy="353.42422"
       r="14.861227" />
    <circle
       style="opacity:1;fill:#008000;fill-opacity:1;stroke:#ff0000;stroke-width:0;stroke-linecap:butt;stroke-miterlimit:4;stroke-dasharray:none;stroke-opacity:1"
       id="path4570-6-5-7-1-1-1"
       cx="2151.9502"
       cy="385.79849"
       r="14.861227" />
    <circle
       style="opacity:1;fill:#784421;fill-opacity:1;stroke:#ff0000;stroke-width:0;stroke-linecap:butt;stroke-miterlimit:4;stroke-dasharray:none;stroke-opacity:1"
       id="path4570-5-1-3-5"
       cx="2335.1946"
       cy="193.63443"
       r="14.861227" />
    <circle
       style="opacity:1;fill:#000080;fill-opacity:1;stroke:#ff0000;stroke-width:0;stroke-linecap:butt;stroke-miterlimit:4;stroke-dasharray:none;stroke-opacity:1"
       id="path4570-3-3-8-6-5"
       cx="2369.0564"
       cy="193.86415"
       r="14.861227" />
    <circle
       style="opacity:1;fill:#ff0000;fill-opacity:1;stroke:#ff0000;stroke-width:0;stroke-linecap:butt;stroke-miterlimit:4;stroke-dasharray:none;stroke-opacity:1"
       id="path4570-3-7-6-9-29-4-3-1-4"
       cx="2719.012"
       cy="196.5358"
       r="14.861227" />
  </g>
</svg>
