<?xml version="1.0" encoding="UTF-8"?>
<!DOCTYPE svg PUBLIC "-//W3C//DTD SVG 1.1//EN" "http://www.w3.org/Graphics/SVG/1.1/DTD/svg11.dtd">
<svg height="70.000000px" width="110.000000px">
    <defs />
    <g>
        <polyline points=" 4.25372,47.5372 15.5885,46.4037 21.1875,46.0325 27.1223,45.875 34.754,45.9699 34.754,45.9699" style="fill:none;stroke:#000000;stroke-linecap:round;stroke-width:3.7" />
        <polyline points=" 4.25372,47.5372 15.5885,46.4037 21.1875,46.0325 27.1223,45.875 34.754,45.9699 34.754,45.9699" style="fill:none;stroke:#0000ff;stroke-linecap:round;stroke-opacity:1;stroke-width:3.5" />
        <polyline points=" 4.75124,52.5124 16.0295,51.3846 21.4167,51.0275 27.1658,50.875 34.5957,50.9674" style="fill:none;stroke:#000000;stroke-linecap:round;stroke-width:3.7" />
        <polyline points=" 4.75124,52.5124 16.0295,51.3846 21.4167,51.0275 27.1658,50.875 34.5957,50.9674" style="fill:none;stroke:#00ff00;stroke-linecap:round;stroke-opacity:1;stroke-width:3.5" />
        <polyline points=" 5.24876,57.4876 16.4705,56.3654 21.6458,56.0225 27.2092,55.875 34.4373,55.9649" style="fill:none;stroke:#000000;stroke-linecap:round;stroke-width:3.7" />
        <polyline points=" 5.24876,57.4876 16.4705,56.3654 21.6458,56.0225 27.2092,55.875 34.4373,55.9649" style="fill:none;stroke:#ff2fe9;stroke-linecap:round;stroke-opacity:1;stroke-width:3.5" />
        <polyline points=" 5.74628,62.4628 16.9115,61.3463 21.875,61.0175 27.2527,60.875 34.279,60.9624" style="fill:none;stroke:#000000;stroke-linecap:round;stroke-width:3.7" />
        <polyline points=" 5.74628,62.4628 16.9115,61.3463 21.875,61.0175 27.2527,60.875 34.279,60.9624" style="fill:none;stroke:#ff0000;stroke-linecap:round;stroke-opacity:1;stroke-width:3.5" />
        <polyline points=" 49.6471,37.2551 49.6476,37.253 51.732,28.7693 52.5554,22.976 52.7811,16.2772 52.5008,5.06248" style="fill:none;stroke:#000000;stroke-linecap:round;stroke-width:3.7" />
        <polyline points=" 49.6471,37.2551 49.6476,37.253 51.732,28.7693 52.5554,22.976 52.7811,16.2772 52.5008,5.06248" style="fill:none;stroke:#0000ff;stroke-linecap:round;stroke-opacity:1;stroke-width:3.5" />
        <polyline points=" 54.5426,38.2726 56.6274,29.7932 57.5383,23.399 57.7814,16.2228 57.4992,4.93752" style="fill:none;stroke:#000000;stroke-linecap:round;stroke-width:3.7" />
        <polyline points=" 54.5426,38.2726 56.6274,29.7932 57.5383,23.399 57.7814,16.2228 57.4992,4.93752" style="fill:none;stroke:#00ff00;stroke-linecap:round;stroke-opacity:1;stroke-width:3.5" />
        <polyline points=" 66.4828,52.069 70.5177,51.5522 74.7811,50.5553 76.7337,50.3497 81.3267,50.25 90.0632,50.825 105.276,52.5153 105.276,52.5153" style="fill:none;stroke:#000000;stroke-linecap:round;stroke-width:3.7" />
        <polyline points=" 66.4828,52.069 70.5177,51.5522 74.7811,50.5553 76.7337,50.3497 81.3267,50.25 90.0632,50.825 105.276,52.5153 105.276,52.5153" style="fill:none;stroke:#ff2fe9;stroke-linecap:round;stroke-opacity:1;stroke-width:3.5" />
        <polyline points=" 66.8889,57.0525 71.5136,56.454 75.5001,55.5072 81.2358,55.25 89.5618,55.8 104.724,57.4847" style="fill:none;stroke:#000000;stroke-linecap:round;stroke-width:3.7" />
        <polyline points=" 66.8889,57.0525 71.5136,56.454 75.5001,55.5072 81.2358,55.25 89.5618,55.8 104.724,57.4847" style="fill:none;stroke:#ff0000;stroke-linecap:round;stroke-opacity:1;stroke-width:3.5" />
    </g>
    <g>
        <polyline points=" 34.4373,55.9646 40.0086,55.9882 44.6232,55.6608 47.8837,55.149 58.0865,53.0667 66.4788,52.0694" style="fill:none;stroke:#000000;stroke-linecap:butt;stroke-width:3.7" />
        <polyline points=" 34.4373,55.9646 40.0086,55.9882 44.6232,55.6608 47.8837,55.149 58.0865,53.0667 66.4788,52.0694" style="fill:none;stroke:#ff2fe9;stroke-linecap:round;stroke-opacity:1;stroke-width:3.5" />
        <polyline points=" 34.279,60.9624 34.7231,60.9757 35.1592,60.9872 35.5872,60.9969 36.0074,61.005 36.42,61.0113 36.825,61.0159 37.2227,61.0189 37.6132,61.0203 37.9966,61.02 38.3731,61.0181 38.7428,61.0147 39.1059,61.0098 39.4626,61.0033 39.8129,60.9954 40.1571,60.986 40.4953,60.9751 40.8277,60.9629 41.1543,60.9492 41.4754,60.9342 41.7911,60.9178 42.1016,60.9001 42.4069,60.8812 42.7074,60.8609 43.003,60.8395 43.294,60.8168 43.5805,60.7929 43.8627,60.7678 44.1406,60.7416 44.4146,60.7143 44.6847,60.6859 44.951,60.6564 45.2137,60.6259 45.4731,60.5943 45.7291,60.5617 45.9821,60.5282 46.232,60.4937 46.4791,60.4583 46.7236,60.422 46.9655,60.3849 47.2051,60.3468 47.4425,60.308 47.6778,60.2683 47.9111,60.2279 48.1428,60.1867 48.3728,60.1448 48.6013,60.1022 48.8286,60.0589 49.0547,60.015 49.2797,59.9704 49.504,59.9252 49.7275,59.8794 49.9505,59.8331 50.173,59.7863 50.3954,59.7389 50.6176,59.6911 50.8399,59.6428 51.0624,59.594 51.2853,59.5449 51.5086,59.4954 51.7327,59.4455 51.9575,59.3953 52.1833,59.3447 52.4102,59.2939 52.6384,59.2428 52.868,59.1915 53.0992,59.14 53.3321,59.0883 53.5669,59.0364 53.8037,58.9843 54.0427,58.9322 54.284,58.88 54.5277,58.8277 54.7742,58.7753 55.0234,58.723 55.2755,58.6706 55.5307,58.6183 55.7891,58.566 56.051,58.5139 56.3164,58.4618 56.5854,58.4098 56.8583,58.3581 57.1352,58.3064 57.4163,58.255 57.7016,58.2039 57.9914,58.1529 58.2858,58.1023 58.585,58.0519 58.889,58.0019 59.1981,57.9522 59.5124,57.9029 59.8321,57.854 60.1572,57.8056 60.4881,57.7575 60.8247,57.71 61.1673,57.6629 61.516,57.6164 61.871,57.5704 62.2324,57.525 62.6004,57.4802 62.9751,57.436 63.3566,57.3924 63.7452,57.3496 64.141,57.3074 64.544,57.2659 64.9546,57.2252 65.3728,57.1852 65.7988,57.146 66.2327,57.1077 66.6746,57.0702 66.8889,57.0525" style="fill:none;stroke:#000000;stroke-linecap:butt;stroke-width:3.7" />
        <polyline points=" 34.279,60.9624 34.7231,60.9757 35.1592,60.9872 35.5872,60.9969 36.0074,61.005 36.42,61.0113 36.825,61.0159 37.2227,61.0189 37.6132,61.0203 37.9966,61.02 38.3731,61.0181 38.7428,61.0147 39.1059,61.0098 39.4626,61.0033 39.8129,60.9954 40.1571,60.986 40.4953,60.9751 40.8277,60.9629 41.1543,60.9492 41.4754,60.9342 41.7911,60.9178 42.1016,60.9001 42.4069,60.8812 42.7074,60.8609 43.003,60.8395 43.294,60.8168 43.5805,60.7929 43.8627,60.7678 44.1406,60.7416 44.4146,60.7143 44.6847,60.6859 44.951,60.6564 45.2137,60.6259 45.4731,60.5943 45.7291,60.5617 45.9821,60.5282 46.232,60.4937 46.4791,60.4583 46.7236,60.422 46.9655,60.3849 47.2051,60.3468 47.4425,60.308 47.6778,60.2683 47.9111,60.2279 48.1428,60.1867 48.3728,60.1448 48.6013,60.1022 48.8286,60.0589 49.0547,60.015 49.2797,59.9704 49.504,59.9252 49.7275,59.8794 49.9505,59.8331 50.173,59.7863 50.3954,59.7389 50.6176,59.6911 50.8399,59.6428 51.0624,59.594 51.2853,59.5449 51.5086,59.4954 51.7327,59.4455 51.9575,59.3953 52.1833,59.3447 52.4102,59.2939 52.6384,59.2428 52.868,59.1915 53.0992,59.14 53.3321,59.0883 53.5669,59.0364 53.8037,58.9843 54.0427,58.9322 54.284,58.88 54.5277,58.8277 54.7742,58.7753 55.0234,58.723 55.2755,58.6706 55.5307,58.6183 55.7891,58.566 56.051,58.5139 56.3164,58.4618 56.5854,58.4098 56.8583,58.3581 57.1352,58.3064 57.4163,58.255 57.7016,58.2039 57.9914,58.1529 58.2858,58.1023 58.585,58.0519 58.889,58.0019 59.1981,57.9522 59.5124,57.9029 59.8321,57.854 60.1572,57.8056 60.4881,57.7575 60.8247,57.71 61.1673,57.6629 61.516,57.6164 61.871,57.5704 62.2324,57.525 62.6004,57.4802 62.9751,57.436 63.3566,57.3924 63.7452,57.3496 64.141,57.3074 64.544,57.2659 64.9546,57.2252 65.3728,57.1852 65.7988,57.146 66.2327,57.1077 66.6746,57.0702 66.8889,57.0525" style="fill:none;stroke:#ff0000;stroke-linecap:round;stroke-opacity:1;stroke-width:3.5" />
    </g>
    <g>
        <polyline points=" 34.754,45.9695 38.5611,45.9843 41.6121,45.7571 43.9092,45.31 45.7863,44.5587 47.0058,43.6102 48.0444,42.1357 48.9454,39.9588 49.646,37.2548" style="fill:none;stroke:#000000;stroke-linecap:butt;stroke-width:3.7" />
        <polyline points=" 34.754,45.9695 38.5611,45.9843 41.6121,45.7571 43.9092,45.31 45.7863,44.5587 47.0058,43.6102 48.0444,42.1357 48.9454,39.9588 49.646,37.2548" style="fill:none;stroke:#0000ff;stroke-linecap:round;stroke-opacity:1;stroke-width:3.5" />
        <polyline points=" 34.5957,50.9674 35.0839,50.9815 35.5645,50.9926 36.0373,51.0007 36.5025,51.0057 36.9601,51.0075 37.4103,51.0061 37.853,51.0014 38.2884,50.9933 38.7164,50.9819 39.1373,50.967 39.551,50.9486 39.9576,50.9266 40.3572,50.9009 40.7498,50.8716 41.1356,50.8385 41.5145,50.8015 41.8867,50.7608 42.2522,50.716 42.611,50.6673 42.9633,50.6145 43.3092,50.5576 43.6486,50.4966 43.9816,50.4313 44.3084,50.3617 44.6289,50.2878 44.9433,50.2095 45.2516,50.1266 45.5539,50.0393 45.8502,49.9474 46.1407,49.8508 46.4253,49.7496 46.7042,49.6436 46.9774,49.5327 47.245,49.417 47.5071,49.2963 47.7636,49.1706 48.0147,49.0399 48.2605,48.9041 48.501,48.763 48.7363,48.6168 48.9665,48.4652 49.1915,48.3083 49.4116,48.146 49.6267,47.9782 49.8369,47.8049 50.0423,47.6259 50.2429,47.4414 50.4389,47.2511 50.6303,47.055 50.8171,46.8532 50.9994,46.6454 51.1774,46.4317 51.351,46.212 51.5203,45.9862 51.6853,45.7543 51.8463,45.5162 52.0032,45.2719 52.156,45.0213 52.3049,44.7643 52.45,44.5009 52.5912,44.231 52.7287,43.9546 52.8625,43.6716 52.9927,43.3819 53.1193,43.0855 53.2425,42.7823 53.3623,42.4723 53.4787,42.1554 53.5919,41.8316 53.7018,41.5007 53.8086,41.1628 53.9124,40.8178 54.0131,40.4655 54.1109,40.106 54.2058,39.7393 54.2979,39.3651 54.3872,38.9835 54.4739,38.5944 54.5425,38.2726" style="fill:none;stroke:#000000;stroke-linecap:butt;stroke-width:3.7" />
        <polyline points=" 34.5957,50.9674 35.0839,50.9815 35.5645,50.9926 36.0373,51.0007 36.5025,51.0057 36.9601,51.0075 37.4103,51.0061 37.853,51.0014 38.2884,50.9933 38.7164,50.9819 39.1373,50.967 39.551,50.9486 39.9576,50.9266 40.3572,50.9009 40.7498,50.8716 41.1356,50.8385 41.5145,50.8015 41.8867,50.7608 42.2522,50.716 42.611,50.6673 42.9633,50.6145 43.3092,50.5576 43.6486,50.4966 43.9816,50.4313 44.3084,50.3617 44.6289,50.2878 44.9433,50.2095 45.2516,50.1266 45.5539,50.0393 45.8502,49.9474 46.1407,49.8508 46.4253,49.7496 46.7042,49.6436 46.9774,49.5327 47.245,49.417 47.5071,49.2963 47.7636,49.1706 48.0147,49.0399 48.2605,48.9041 48.501,48.763 48.7363,48.6168 48.9665,48.4652 49.1915,48.3083 49.4116,48.146 49.6267,47.9782 49.8369,47.8049 50.0423,47.6259 50.2429,47.4414 50.4389,47.2511 50.6303,47.055 50.8171,46.8532 50.9994,46.6454 51.1774,46.4317 51.351,46.212 51.5203,45.9862 51.6853,45.7543 51.8463,45.5162 52.0032,45.2719 52.156,45.0213 52.3049,44.7643 52.45,44.5009 52.5912,44.231 52.7287,43.9546 52.8625,43.6716 52.9927,43.3819 53.1193,43.0855 53.2425,42.7823 53.3623,42.4723 53.4787,42.1554 53.5919,41.8316 53.7018,41.5007 53.8086,41.1628 53.9124,40.8178 54.0131,40.4655 54.1109,40.106 54.2058,39.7393 54.2979,39.3651 54.3872,38.9835 54.4739,38.5944 54.5425,38.2726" style="fill:none;stroke:#00ff00;stroke-linecap:round;stroke-opacity:1;stroke-width:3.5" />
    </g>
    <g />
</svg>