<?xml version="1.0" encoding="UTF-8"?>
<!DOCTYPE svg PUBLIC "-//W3C//DTD SVG 1.1//EN" "http://www.w3.org/Graphics/SVG/1.1/DTD/svg11.dtd">
<svg height="60.000000px" width="110.000000px">
    <defs />
    <g>
        <polyline points=" 4.50971,52.5485 10.1817,51.4141 14.0256,50.8484 38.8113,48.3412 42.039,47.7462 44.6524,47.055 46.6222,46.2995 47.9158,45.5503 48.554,44.9376 48.7451,44.5505 49.0919,40.5917 49.6238,37.3668 51.732,28.7693 52.5554,22.976 52.7811,16.2772 52.5008,5.06248" style="fill:none;stroke:#000000;stroke-linecap:round;stroke-width:3.7" />
        <polyline points=" 4.50971,52.5485 10.1817,51.4141 14.0256,50.8484 38.8113,48.3412 42.039,47.7462 44.6524,47.055 46.6222,46.2995 47.9158,45.5503 48.554,44.9376 48.7451,44.5505 49.0919,40.5917 49.6238,37.3668 51.732,28.7693 52.5554,22.976 52.7811,16.2772 52.5008,5.06248" style="fill:none;stroke:#0000ff;stroke-linecap:round;stroke-opacity:1;stroke-width:3.5" />
        <polyline points=" 5.49029,57.4515 11.0683,56.3359 14.6619,55.8079 23.2092,54.8791 35.5111,53.7994 39.5794,53.2838 43.1329,52.6288 46.1913,51.82 48.7841,50.8255 50.9435,49.5747 52.6491,47.9374 53.6924,45.8245 53.8865,42.6387 54.2639,39.8126 55.231,35.1814 56.6274,29.7932 57.31,25.6167 57.7733,18.7025 57.4992,4.93752" style="fill:none;stroke:#000000;stroke-linecap:round;stroke-width:3.7" />
        <polyline points=" 5.49029,57.4515 11.0683,56.3359 14.6619,55.8079 23.2092,54.8791 35.5111,53.7994 39.5794,53.2838 43.1329,52.6288 46.1913,51.82 48.7841,50.8255 50.9435,49.5747 52.6491,47.9374 53.6924,45.8245 53.8865,42.6387 54.2639,39.8126 55.231,35.1814 56.6274,29.7932 57.31,25.6167 57.7733,18.7025 57.4992,4.93752" style="fill:none;stroke:#00ff00;stroke-linecap:round;stroke-opacity:1;stroke-width:3.5" />
        <polyline points=" 4.75124,52.5124 16.0438,51.3832 25.8844,51 38.8771,51.1888 58.4227,51.8907 65.4449,51.8449 70.2824,51.5043 74.7811,50.5553 76.7337,50.3497 81.3267,50.25 90.0632,50.825 105.276,52.5153" style="fill:none;stroke:#000000;stroke-linecap:round;stroke-width:3.7" />
        <polyline points=" 4.75124,52.5124 16.0438,51.3832 25.8844,51 38.8771,51.1888 58.4227,51.8907 65.4449,51.8449 70.2824,51.5043 74.7811,50.5553 76.7337,50.3497 81.3267,50.25 90.0632,50.825 105.276,52.5153" style="fill:none;stroke:#ff2fe9;stroke-linecap:round;stroke-opacity:1;stroke-width:3.5" />
        <polyline points=" 5.24876,57.4876 16.4562,56.3668 25.9281,56 38.7166,56.1862 58.3585,56.8905 65.6176,56.8426 70.9364,56.4645 75.5001,55.5072 79.026,55.25 86.5083,55.5238 104.724,57.4847" style="fill:none;stroke:#000000;stroke-linecap:round;stroke-width:3.7" />
        <polyline points=" 5.24876,57.4876 16.4562,56.3668 25.9281,56 38.7166,56.1862 58.3585,56.8905 65.6176,56.8426 70.9364,56.4645 75.5001,55.5072 79.026,55.25 86.5083,55.5238 104.724,57.4847" style="fill:none;stroke:#ff0000;stroke-linecap:round;stroke-opacity:1;stroke-width:3.5" />
    </g>
    <g />
</svg>