<?xml version="1.0" encoding="UTF-8" standalone="no"?>
<svg
   xmlns:dc="http://purl.org/dc/elements/1.1/"
   xmlns:cc="http://creativecommons.org/ns#"
   xmlns:rdf="http://www.w3.org/1999/02/22-rdf-syntax-ns#"
   xmlns:svg="http://www.w3.org/2000/svg"
   xmlns="http://www.w3.org/2000/svg"
   xmlns:sodipodi="http://sodipodi.sourceforge.net/DTD/sodipodi-0.dtd"
   xmlns:inkscape="http://www.inkscape.org/namespaces/inkscape"
   viewBox="0 0 3507 2480"
   height="209.973mm"
   version="1.2"
   width="296.926mm"
   id="svg2"
   inkscape:version="0.91 r13725"
   sodipodi:docname="obstacles.svg">
  <sodipodi:namedview
     pagecolor="#ffffff"
     bordercolor="#666666"
     borderopacity="1"
     objecttolerance="10"
     gridtolerance="10"
     guidetolerance="10"
     inkscape:pageopacity="0"
     inkscape:pageshadow="2"
     inkscape:window-width="1920"
     inkscape:window-height="1004"
     id="namedview85"
     showgrid="false"
     inkscape:zoom="0.63440959"
     inkscape:cx="952.40458"
     inkscape:cy="121.09798"
     inkscape:window-x="0"
     inkscape:window-y="44"
     inkscape:window-maximized="1"
     inkscape:current-layer="svg2" />
  <defs
     id="defs4" />
  <g
     style="font-style:normal;font-weight:400;font-size:45.83330154px;font-family:Ubuntu;fill:none;fill-rule:evenodd;stroke:#000000;stroke-width:1;stroke-linecap:square;stroke-linejoin:bevel;stroke-opacity:1"
     id="g8"
     font-style="normal"
     font-weight="400"
     font-size="45.8333" />
  <g
     style="font-style:normal;font-weight:400;font-size:45.83330154px;font-family:Ubuntu;fill:none;fill-rule:evenodd;stroke:#000000;stroke-width:1;stroke-linecap:square;stroke-linejoin:bevel;stroke-opacity:1"
     id="g10"
     font-style="normal"
     font-weight="400"
     font-size="45.8333" />
  <g
     style="font-style:normal;font-weight:400;font-size:45.83330154px;font-family:Ubuntu;fill:none;fill-rule:evenodd;stroke:#000000;stroke-width:1;stroke-linecap:square;stroke-linejoin:bevel;stroke-opacity:1"
     id="g12"
     font-style="normal"
     transform="scale(11.8081,11.8081)"
     font-weight="400"
     font-size="45.8333" />
  <g
     style="font-style:normal;font-weight:400;font-size:45.83330154px;font-family:Ubuntu;fill:none;fill-rule:evenodd;stroke:#000000;stroke-width:1;stroke-linecap:square;stroke-linejoin:bevel;stroke-opacity:1"
     id="g14"
     font-style="normal"
     transform="scale(0.999751,0.999751)"
     font-weight="400"
     font-size="45.8333" />
  <g
     style="font-style:normal;font-weight:400;font-size:45.83330154px;font-family:Ubuntu;fill:#ffffff;fill-opacity:1;fill-rule:evenodd;stroke:none;stroke-width:1;stroke-linecap:square;stroke-linejoin:bevel"
     id="g16"
     font-style="normal"
     transform="scale(0.999751,0.999751)"
     font-weight="400"
     font-size="45.8333">
    <path
       style="fill-rule:evenodd"
       inkscape:connector-curvature="0"
       id="path18"
       vector-effect="none"
       d="m -2,-2 3512,0 0,2485 -3512,0 0,-2485" />
  </g>
  <g
     style="font-style:normal;font-weight:400;font-size:45.83330154px;font-family:Ubuntu;fill:none;fill-rule:evenodd;stroke:#000000;stroke-width:1;stroke-linecap:square;stroke-linejoin:bevel;stroke-opacity:1"
     id="g20"
     font-style="normal"
     transform="scale(0.999751,0.999751)"
     font-weight="400"
     font-size="45.8333" />
  <g
     style="font-style:normal;font-weight:400;font-size:45.83330154px;font-family:Ubuntu;fill:none;fill-rule:evenodd;stroke:#000000;stroke-width:1;stroke-linecap:square;stroke-linejoin:bevel;stroke-opacity:1"
     id="g22"
     font-style="normal"
     transform="scale(11.8081,11.8081)"
     font-weight="400"
     font-size="45.8333" />
  <g
     style="font-style:normal;font-weight:400;font-size:45.83330154px;font-family:Ubuntu;fill:none;fill-rule:evenodd;stroke:#000000;stroke-width:1;stroke-linecap:square;stroke-linejoin:bevel;stroke-opacity:1"
     id="g24"
     font-style="normal"
     transform="scale(11.8081,11.8081)"
     font-weight="400"
     font-size="45.8333" />
  <g
     style="font-style:normal;font-weight:400;font-size:45.83330154px;font-family:Ubuntu;fill:none;fill-rule:evenodd;stroke:#000000;stroke-width:1;stroke-linecap:square;stroke-linejoin:bevel;stroke-opacity:1"
     id="g26"
     font-style="normal"
     transform="scale(11.8081,11.8081)"
     font-weight="400"
     font-size="45.8333" />
  <g
     style="font-style:normal;font-weight:400;font-size:45.83330154px;font-family:Ubuntu;fill:none;fill-rule:evenodd;stroke:#000000;stroke-width:1;stroke-linecap:square;stroke-linejoin:bevel;stroke-opacity:1"
     id="g28"
     font-style="normal"
     transform="scale(11.8081,11.8081)"
     font-weight="400"
     font-size="45.8333" />
  <g
     style="font-style:normal;font-weight:400;font-size:45.83330154px;font-family:Ubuntu;fill:none;fill-rule:evenodd;stroke:#000000;stroke-width:1;stroke-linecap:square;stroke-linejoin:bevel;stroke-opacity:1"
     id="g30"
     font-style="normal"
     transform="scale(11.8081,11.8081)"
     font-weight="400"
     font-size="45.8333" />
  <g
     style="font-style:normal;font-weight:400;font-size:45.83330154px;font-family:Ubuntu;fill:none;fill-rule:evenodd;stroke:#000000;stroke-width:1;stroke-linecap:square;stroke-linejoin:bevel;stroke-opacity:1"
     id="g36"
     font-style="normal"
     transform="scale(11.8081,11.8081)"
     font-weight="400"
     font-size="45.8333" />
  <g
     style="font-style:normal;font-weight:400;font-size:45.83330154px;font-family:Ubuntu;fill:none;fill-rule:evenodd;stroke:#000000;stroke-width:1;stroke-linecap:square;stroke-linejoin:bevel;stroke-opacity:1"
     id="g38"
     font-style="normal"
     transform="scale(11.8081,11.8081)"
     font-weight="400"
     font-size="45.8333" />
  <g
     style="font-style:normal;font-weight:400;font-size:45.83330154px;font-family:Ubuntu;fill:#000000;fill-opacity:0;fill-rule:evenodd;stroke:none;stroke-width:1;stroke-linecap:square;stroke-linejoin:bevel"
     id="g40"
     font-style="normal"
     transform="scale(0.999751,0.999751)"
     font-weight="400"
     font-size="45.8333">
    <rect
       id="rect42"
       width="3508"
       x="0"
       y="0"
       height="2480" />
  </g>
  <g
     style="font-style:normal;font-weight:400;font-size:45.83330154px;font-family:Ubuntu;fill:#729b6f;fill-opacity:1;fill-rule:evenodd;stroke:#232323;stroke-width:3.07086992;stroke-linecap:square;stroke-linejoin:bevel;stroke-opacity:1"
     id="g44"
     font-style="normal"
     transform="scale(0.999751,0.999751)"
     font-weight="400"
     font-size="45.8333">
    <path
       style="fill-rule:evenodd"
       inkscape:connector-curvature="0"
       id="path46"
       vector-effect="none"
       d="m 1900.73,1713.92 53.79,-69.6 30.37,-35.44 26.57,-10.75 10.76,-37.97 52.52,17.72 -6.33,-29.11 35.43,-22.77 -11.39,-20.88 5.7,-26.58 -4.43,-33.53 -21.51,-26.58 -37.97,-45.56 -22.78,-18.98 41.76,-20.25 74.67,11.39 56.94,13.92 53.15,16.46 208.8,24.04 160.72,79.72 75.93,118.96 -50.62,93.64 -49.36,58.21 -54.41,13.92 -68.34,16.45 -67.07,11.39 -46.82,-26.57 -39.23,-26.58 -31.63,-30.37 -43.03,13.92 -15.19,-16.45 -15.18,-30.37 -35.43,17.72 6.32,26.57 -45.55,2.53 -64.54,-11.39 -74.67,-5.06 -64.53,10.13 -23.42,-1.9" />
    <path
       style="fill-rule:evenodd"
       inkscape:connector-curvature="0"
       id="path48"
       vector-effect="none"
       d="m 1749.51,2062.55 72.13,69.6 80.99,92.38 75.93,43.03 6.33,59.48 -15.19,84.78 -69.6,10.13 -102.5,-11.39 -44.29,0 -60.74,-30.37 -22.78,-73.4 -13.92,-75.93 3.79,-86.05 25.31,-48.09 46.82,-112.63 17.72,78.46" />
    <path
       style="fill-rule:evenodd"
       inkscape:connector-curvature="0"
       id="path50"
       vector-effect="none"
       d="m 1453.39,1407.67 3.17,-10.75 12.02,-1.9 24.04,10.76 13.29,13.92 10.76,11.39 16.45,4.42 0,10.76 -7.6,6.96 -1.89,10.13 -15.82,-2.54 -11.39,-12.65 -13.29,-6.96 -2.53,-13.92 -14.55,-6.96 0,0 -5.7,-5.06 -6.96,-7.6" />
    <path
       style="fill-rule:evenodd"
       inkscape:connector-curvature="0"
       id="path52"
       vector-effect="none"
       d="m 1318.62,1585.47 -11.39,-14.55 -1.26,-13.92 3.79,-12.66 6.96,3.8 6.33,12.66 8.86,11.39 6.96,3.16 -5.06,8.86 -12.03,3.79 -3.16,-2.53" />
    <path
       style="fill-rule:evenodd"
       inkscape:connector-curvature="0"
       id="path54"
       vector-effect="none"
       d="m 1343.22,1127.53 -11.87,-8.78 -4.98,-13.05 -2.13,-8.54 -7.36,-12.81 -3.08,-6.41 16.84,-3.32 10.44,-0.24 8.54,8.54 7.83,8.78 7.6,5.46 2.13,4.27 -4.51,6.88 -6.64,9.02 -12.81,10.2" />
    <path
       style="fill-rule:evenodd"
       inkscape:connector-curvature="0"
       id="path56"
       vector-effect="none"
       d="m 2039.62,1338.23 -10.68,-14.23 45.56,-78.31 -19.22,-15.66 28.47,-88.26 14.95,-82.57 96.1,-17.09 80.43,55.52 6.41,76.88 70.47,-46.98 52.68,46.27 76.16,-7.12 51.25,74.03 37.73,101.08 54.1,76.17 -5.7,49.11 -17.79,18.51 -560.92,-147.35" />
    <path
       style="fill-rule:evenodd"
       inkscape:connector-curvature="0"
       id="path58"
       vector-effect="none"
       d="m 1699.01,1439.31 50.19,-51.61 65.13,66.56 -37.73,44.13 -4.27,17.8 -73.32,-76.88" />
    <path
       style="fill-rule:evenodd"
       inkscape:connector-curvature="0"
       id="path60"
       vector-effect="none"
       d="m 1823.94,2015.89 2.84,-84 95.39,-55.52 89.69,-25.62 103.93,-17.09 96.8,27.05 74.03,37.02 -19.93,37.01 52.68,25.63 -46.98,38.44 38.44,32.74 66.91,-5.69 69.76,-9.97 32.74,0 5.69,62.64 -17.08,49.83 -44.13,64.06 -41.29,52.68 -61.22,96.81 -46.98,51.25 -88.26,48.4 -72.61,25.63 -62.64,-35.59 -24.2,-56.95 -8.54,-72.61 1.42,-51.25 -2.85,-41.28 22.78,-21.36 -69.76,-29.9 -41.28,-22.77 -69.76,-61.22 -35.59,-58.37" />
    <path
       style="fill-rule:evenodd"
       inkscape:connector-curvature="0"
       id="path62"
       vector-effect="none"
       d="m 1565.72,1598.76 21,-26.69 49.83,27.4 -13.53,28.12 -57.3,-28.83" />
    <path
       style="fill-rule:evenodd"
       inkscape:connector-curvature="0"
       id="path64"
       vector-effect="none"
       d="m 1479.24,1965.35 2.13,-49.12 -60.5,-15.66 0.71,-31.32 29.18,-2.84 6.41,-38.44 12.1,2.85 0.71,42.7 44.13,-3.55 4.28,29.89 -18.51,7.83 7.83,54.81 -28.47,2.85" />
  </g>
  <g
     style="font-style:normal;font-weight:400;font-size:45.83330154px;font-family:Ubuntu;fill:none;fill-rule:evenodd;stroke:#000000;stroke-width:1;stroke-linecap:square;stroke-linejoin:bevel;stroke-opacity:1"
     id="g66"
     font-style="normal"
     transform="scale(11.8081,11.8081)"
     font-weight="400"
     font-size="45.8333" />
  <g
     style="font-style:normal;font-weight:400;font-size:45.83330154px;font-family:Ubuntu;fill:none;fill-rule:evenodd;stroke:#000000;stroke-width:1;stroke-linecap:square;stroke-linejoin:bevel;stroke-opacity:1"
     id="g68"
     font-style="normal"
     transform="scale(11.8081,11.8081)"
     font-weight="400"
     font-size="45.8333" />
  <g
     style="font-style:normal;font-weight:400;font-size:45.83330154px;font-family:Ubuntu;fill:none;fill-rule:evenodd;stroke:#000000;stroke-width:1;stroke-linecap:square;stroke-linejoin:bevel;stroke-opacity:1"
     id="g70"
     font-style="normal"
     transform="scale(11.8081,11.8081)"
     font-weight="400"
     font-size="45.8333" />
  <g
     style="font-style:normal;font-weight:400;font-size:45.83330154px;font-family:Ubuntu;fill:none;fill-rule:evenodd;stroke:#000000;stroke-width:1;stroke-linecap:square;stroke-linejoin:bevel;stroke-opacity:1"
     id="g72"
     font-style="normal"
     font-weight="400"
     font-size="45.8333" />
  <g
     style="font-style:normal;font-weight:400;font-size:45.83330154px;font-family:Ubuntu;fill:none;fill-rule:evenodd;stroke:#000000;stroke-width:1;stroke-linecap:square;stroke-linejoin:bevel;stroke-opacity:1"
     id="g74"
     font-style="normal"
     transform="scale(11.8081,11.8081)"
     font-weight="400"
     font-size="45.8333" />
  <g
     style="font-style:normal;font-weight:400;font-size:45.83330154px;font-family:Ubuntu;fill:none;fill-rule:evenodd;stroke:#000000;stroke-width:1;stroke-linecap:square;stroke-linejoin:bevel;stroke-opacity:1"
     id="g76"
     font-style="normal"
     transform="scale(11.8081,11.8081)"
     font-weight="400"
     font-size="45.8333" />
  <g
     style="font-style:normal;font-weight:400;font-size:45.83330154px;font-family:Ubuntu;fill:none;fill-rule:evenodd;stroke:#000000;stroke-width:1;stroke-linecap:square;stroke-linejoin:bevel;stroke-opacity:1"
     id="g78"
     font-style="normal"
     transform="scale(11.8081,11.8081)"
     font-weight="400"
     font-size="45.8333" />
  <g
     style="font-style:normal;font-weight:400;font-size:45.83330154px;font-family:Ubuntu;fill:none;fill-rule:evenodd;stroke:#000000;stroke-width:1;stroke-linecap:square;stroke-linejoin:bevel;stroke-opacity:1"
     id="g80"
     font-style="normal"
     transform="scale(11.8081,11.8081)"
     font-weight="400"
     font-size="45.8333" />
  <g
     style="font-style:normal;font-weight:400;font-size:45.83330154px;font-family:Ubuntu;fill:none;fill-rule:evenodd;stroke:#000000;stroke-width:1;stroke-linecap:square;stroke-linejoin:bevel;stroke-opacity:1"
     id="g82"
     font-style="normal"
     font-weight="400"
     font-size="45.8333" />
  <metadata
     id="qgismetadata">
    <rdf:RDF>
      <cc:Work>
        <dc:format>image/svg+xml</dc:format>
        <dc:title />
        <dc:date />
        <dc:identifier />
        <dc:description />
        <dc:creator>
          <cc:Agent>
            <dc:title />
          </cc:Agent>
        </dc:creator>
        <dc:publisher>
          <cc:Agent>
            <dc:title>QGIS 3.4.6-Madeira</dc:title>
          </cc:Agent>
        </dc:publisher>
        <dc:subject>
          <rdf:Bag />
        </dc:subject>
        <dc:type
           rdf:resource="http://purl.org/dc/dcmitype/StillImage" />
      </cc:Work>
    </rdf:RDF>
  </metadata>
</svg>
