<?xml version="1.0" encoding="UTF-8"?>
<!DOCTYPE svg PUBLIC "-//W3C//DTD SVG 1.1//EN" "http://www.w3.org/Graphics/SVG/1.1/DTD/svg11.dtd">
<svg height="40.000000px" width="50.000000px">
    <defs />
    <g>
        <polyline points=" 5,22.5 5,22.5 17.1,22.5" style="fill:none;stroke:#000000;stroke-linecap:round;stroke-width:1.7" />
        <polyline points=" 5,22.5 5,22.5 17.1,22.5" style="fill:none;stroke:#0000FF;stroke-linecap:round;stroke-opacity:1;stroke-width:1.5" />
        <polyline points=" 5,20 17.1,20" style="fill:none;stroke:#000000;stroke-linecap:round;stroke-width:1.7" />
        <polyline points=" 5,20 17.1,20" style="fill:none;stroke:#f8da00;stroke-linecap:round;stroke-opacity:1;stroke-width:1.5" />
        <polyline points=" 5,17.5 17.1,17.5" style="fill:none;stroke:#000000;stroke-linecap:round;stroke-width:1.7" />
        <polyline points=" 5,17.5 17.1,17.5" style="fill:none;stroke:#FF0000;stroke-linecap:round;stroke-opacity:1;stroke-width:1.5" />
        <polyline points=" 26.25,12.1 26.25,5" style="fill:none;stroke:#000000;stroke-linecap:round;stroke-width:1.7" />
        <polyline points=" 26.25,12.1 26.25,5" style="fill:none;stroke:#00FF00;stroke-linecap:round;stroke-opacity:1;stroke-width:1.5" />
        <polyline points=" 23.75,12.1 23.75,5" style="fill:none;stroke:#000000;stroke-linecap:round;stroke-width:1.7" />
        <polyline points=" 23.75,12.1 23.75,5" style="fill:none;stroke:#FF0000;stroke-linecap:round;stroke-opacity:1;stroke-width:1.5" />
        <polyline points=" 32.4,21.25 45,21.25" style="fill:none;stroke:#000000;stroke-linecap:round;stroke-width:1.7" />
        <polyline points=" 32.4,21.25 45,21.25" style="fill:none;stroke:#0000FF;stroke-linecap:round;stroke-opacity:1;stroke-width:1.5" />
        <polyline points=" 32.4,18.75 45,18.75" style="fill:none;stroke:#000000;stroke-linecap:round;stroke-width:1.7" />
        <polyline points=" 32.4,18.75 45,18.75" style="fill:none;stroke:#f8da00;stroke-linecap:round;stroke-opacity:1;stroke-width:1.5" />
        <polyline points=" 25,27.2 25,35" style="fill:none;stroke:#000000;stroke-linecap:round;stroke-width:1.7" />
        <polyline points=" 25,27.2 25,35" style="fill:none;stroke:#00FF00;stroke-linecap:round;stroke-opacity:1;stroke-width:1.5" />
    </g>
    <g>
        <polyline points=" 17.1,20 17.9655,19.9944 18.7657,19.9783 19.5062,19.9525 20.1925,19.9179 20.8301,19.8754 21.4245,19.826 21.9814,19.7705 22.5061,19.7098 23.0044,19.6448 23.4816,19.5764 23.9434,19.5055 24.3953,19.433 24.8428,19.3598 25.2914,19.2868 25.7467,19.2148 26.2142,19.1449 26.6995,19.0778 27.2081,19.0144 27.7455,18.9558 28.3173,18.9027 28.929,18.856 29.5861,18.8167 30.2942,18.7857 31.0588,18.7638 31.8855,18.7519 32.4,18.75" style="fill:none;stroke:#000000;stroke-linecap:butt;stroke-width:1.7" />
        <polyline points=" 17.1,20 17.9655,19.9944 18.7657,19.9783 19.5062,19.9525 20.1925,19.9179 20.8301,19.8754 21.4245,19.826 21.9814,19.7705 22.5061,19.7098 23.0044,19.6448 23.4816,19.5764 23.9434,19.5055 24.3953,19.433 24.8428,19.3598 25.2914,19.2868 25.7467,19.2148 26.2142,19.1449 26.6995,19.0778 27.2081,19.0144 27.7455,18.9558 28.3173,18.9027 28.929,18.856 29.5861,18.8167 30.2942,18.7857 31.0588,18.7638 31.8855,18.7519 32.4,18.75" style="fill:none;stroke:#f8da00;stroke-linecap:round;stroke-opacity:1;stroke-width:1.5" />
        <polyline points=" 17.1,22.5 17.9655,22.4944 18.7657,22.4783 19.5062,22.4525 20.1925,22.4179 20.8301,22.3754 21.4245,22.326 21.9814,22.2705 22.5061,22.2098 23.0044,22.1448 23.4816,22.0764 23.9434,22.0055 24.3953,21.933 24.8428,21.8598 25.2914,21.7868 25.7467,21.7148 26.2142,21.6449 26.6995,21.5778 27.2081,21.5144 27.7455,21.4558 28.3173,21.4027 28.929,21.356 29.5861,21.3167 30.2942,21.2857 31.0588,21.2638 31.8855,21.2519 32.4,21.25" style="fill:none;stroke:#000000;stroke-linecap:butt;stroke-width:1.7" />
        <polyline points=" 17.1,22.5 17.9655,22.4944 18.7657,22.4783 19.5062,22.4525 20.1925,22.4179 20.8301,22.3754 21.4245,22.326 21.9814,22.2705 22.5061,22.2098 23.0044,22.1448 23.4816,22.0764 23.9434,22.0055 24.3953,21.933 24.8428,21.8598 25.2914,21.7868 25.7467,21.7148 26.2142,21.6449 26.6995,21.5778 27.2081,21.5144 27.7455,21.4558 28.3173,21.4027 28.929,21.356 29.5861,21.3167 30.2942,21.2857 31.0588,21.2638 31.8855,21.2519 32.4,21.25" style="fill:none;stroke:#0000FF;stroke-linecap:round;stroke-opacity:1;stroke-width:1.5" />
    </g>
    <g>
        <polyline points=" 26.25,12.1 26.2443,12.9651 26.2277,13.764 26.2013,14.5026 26.1658,15.1865 26.1224,15.8213 26.0718,16.4128 26.0151,16.9667 25.9531,17.4885 25.8869,17.9841 25.8172,18.459 25.7451,18.919 25.6715,19.3698 25.5973,19.817 25.5234,20.2664 25.4508,20.7235 25.3805,21.1942 25.3132,21.684 25.2501,22.1986 25.192,22.7438 25.1398,23.3253 25.0944,23.9486 25.0569,24.6196 25.0281,25.3438 25.0089,26.127 25.0004,26.9748 25,27.2" style="fill:none;stroke:#000000;stroke-linecap:butt;stroke-width:1.7" />
        <polyline points=" 26.25,12.1 26.2443,12.9651 26.2277,13.764 26.2013,14.5026 26.1658,15.1865 26.1224,15.8213 26.0718,16.4128 26.0151,16.9667 25.9531,17.4885 25.8869,17.9841 25.8172,18.459 25.7451,18.919 25.6715,19.3698 25.5973,19.817 25.5234,20.2664 25.4508,20.7235 25.3805,21.1942 25.3132,21.684 25.2501,22.1986 25.192,22.7438 25.1398,23.3253 25.0944,23.9486 25.0569,24.6196 25.0281,25.3438 25.0089,26.127 25.0004,26.9748 25,27.2" style="fill:none;stroke:#00FF00;stroke-linecap:round;stroke-opacity:1;stroke-width:1.5" />
    </g>
    <g>
        <polyline points=" 23.75,12.1 23.7153,12.9541 23.6119,13.7192 23.4407,14.3996 23.2026,14.9995 22.8985,15.523 22.5294,15.9745 22.0963,16.3581 21.5999,16.6781 21.0413,16.9387 20.4214,17.1442 19.7412,17.2987 19.0014,17.4064 18.2032,17.4717 17.3474,17.4987 17.1,17.5" style="fill:none;stroke:#000000;stroke-linecap:butt;stroke-width:1.7" />
        <polyline points=" 23.75,12.1 23.7153,12.9541 23.6119,13.7192 23.4407,14.3996 23.2026,14.9995 22.8985,15.523 22.5294,15.9745 22.0963,16.3581 21.5999,16.6781 21.0413,16.9387 20.4214,17.1442 19.7412,17.2987 19.0014,17.4064 18.2032,17.4717 17.3474,17.4987 17.1,17.5" style="fill:none;stroke:#FF0000;stroke-linecap:round;stroke-opacity:1;stroke-width:1.5" />
    </g>
    <g>
        <polygon fill="white" points=" 3,22.25 3,17.75 3.03038,17.4027 3.12061,17.066 3.26795,16.75 3.46791,16.4644 3.71442,16.2179 4,16.0179 4.31596,15.8706 4.6527,15.7804 5,15.75 5.3473,15.7804 5.68404,15.8706 6,16.0179 6.28558,16.2179 6.53209,16.4644 6.73205,16.75 6.87939,17.066 6.96962,17.4027 7,17.75 7,17.75 7,22.25 6.96962,22.5973 6.87939,22.934 6.73205,23.25 6.53209,23.5356 6.28558,23.7821 6,23.9821 5.68404,24.1294 5.3473,24.2196 5,24.25 4.6527,24.2196 4.31596,24.1294 4,23.9821 3.71442,23.7821 3.46791,23.5356 3.26795,23.25 3.12061,22.934 3.03038,22.5973 3,22.25" stroke="black" stroke-width="0.75" />
        <polygon fill="white" points=" 47,19 47,21 46.9696,21.3473 46.8794,21.684 46.7321,22 46.5321,22.2856 46.2856,22.5321 46,22.7321 45.684,22.8794 45.3473,22.9696 45,23 44.6527,22.9696 44.316,22.8794 44,22.7321 43.7144,22.5321 43.4679,22.2856 43.2679,22 43.1206,21.684 43.0304,21.3473 43,21 43,21 43,19 43.0304,18.6527 43.1206,18.316 43.2679,18 43.4679,17.7144 43.7144,17.4679 44,17.2679 44.316,17.1206 44.6527,17.0304 45,17 45.3473,17.0304 45.684,17.1206 46,17.2679 46.2856,17.4679 46.5321,17.7144 46.7321,18 46.8794,18.316 46.9696,18.6527 47,19" stroke="black" stroke-width="0.75" />
        <polygon fill="white" points=" 24,3 26,3 26.3473,3.03038 26.684,3.12061 27,3.26795 27.2856,3.46791 27.5321,3.71442 27.7321,4 27.8794,4.31596 27.9696,4.6527 28,5 27.9696,5.3473 27.8794,5.68404 27.7321,6 27.5321,6.28558 27.2856,6.53209 27,6.73205 26.684,6.87939 26.3473,6.96962 26,7 26,7 24,7 23.6527,6.96962 23.316,6.87939 23,6.73205 22.7144,6.53209 22.4679,6.28558 22.2679,6 22.1206,5.68404 22.0304,5.3473 22,5 22.0304,4.6527 22.1206,4.31596 22.2679,4 22.4679,3.71442 22.7144,3.46791 23,3.26795 23.316,3.12061 23.6527,3.03038 24,3" stroke="black" stroke-width="0.75" />
        <polygon fill="white" points=" 25.25,37 24.75,37 24.4027,36.9696 24.066,36.8794 23.75,36.7321 23.4644,36.5321 23.2179,36.2856 23.0179,36 22.8706,35.684 22.7804,35.3473 22.75,35 22.7804,34.6527 22.8706,34.316 23.0179,34 23.2179,33.7144 23.4644,33.4679 23.75,33.2679 24.066,33.1206 24.4027,33.0304 24.75,33 24.75,33 25.25,33 25.5973,33.0304 25.934,33.1206 26.25,33.2679 26.5356,33.4679 26.7821,33.7144 26.9821,34 27.1294,34.316 27.2196,34.6527 27.25,35 27.2196,35.3473 27.1294,35.684 26.9821,36 26.7821,36.2856 26.5356,36.5321 26.25,36.7321 25.934,36.8794 25.5973,36.9696 25.25,37" stroke="black" stroke-width="0.75" />
    </g>
</svg>