<?xml version="1.0" encoding="UTF-8"?>
<!DOCTYPE svg PUBLIC "-//W3C//DTD SVG 1.1//EN" "http://www.w3.org/Graphics/SVG/1.1/DTD/svg11.dtd">
<svg height="30.000000px" width="50.000000px">
    <defs />
    <g>
        <polyline points=" 6.06066,3.93934 10.3331,8.21177" style="fill:none;stroke:#000000;stroke-linecap:round;stroke-width:2.2" />
        <polyline points=" 21.2,12 28.8,12" style="fill:none;stroke:#000000;stroke-linecap:round;stroke-width:2.2" />
        <polyline points=" 41.7882,19.6669 46.0607,23.9393" style="fill:none;stroke:#000000;stroke-linecap:round;stroke-width:2.2" />
    </g>
    <g>
        <polyline points=" 6.06066,3.93934 10.3331,8.21177" style="fill:none;stroke:#FF0000;stroke-linecap:round;stroke-opacity:1;stroke-width:2" />
        <polyline points=" 21.2,12 28.8,12" style="fill:none;stroke:#FF0000;stroke-linecap:round;stroke-opacity:1;stroke-width:2" />
        <polyline points=" 41.7882,19.6669 46.0607,23.9393" style="fill:none;stroke:#FF0000;stroke-linecap:round;stroke-opacity:1;stroke-width:2" />
    </g>
    <g>
        <polyline points=" 5,25 9.27244,20.7276" style="fill:none;stroke:#000000;stroke-linecap:round;stroke-width:2.2" />
        <polyline points=" 21.2,18 28.8,18" style="fill:none;stroke:#000000;stroke-linecap:round;stroke-width:2.2" />
        <polyline points=" 40.7276,9.27244 45,5" style="fill:none;stroke:#000000;stroke-linecap:round;stroke-width:2.2" />
    </g>
    <g>
        <polyline points=" 5,25 9.27244,20.7276" style="fill:none;stroke:#00FF00;stroke-linecap:round;stroke-opacity:1;stroke-width:2" />
        <polyline points=" 21.2,18 28.8,18" style="fill:none;stroke:#00FF00;stroke-linecap:round;stroke-opacity:1;stroke-width:2" />
        <polyline points=" 40.7276,9.27244 45,5" style="fill:none;stroke:#00FF00;stroke-linecap:round;stroke-opacity:1;stroke-width:2" />
    </g>
    <g>
        <polyline points=" 3.93934,6.06066 3.93934,6.06066 8.21177,10.3331 8.21177,10.3331" style="fill:none;stroke:#000000;stroke-linecap:round;stroke-width:2.2" />
        <polyline points=" 21.2,15 28.8,15" style="fill:none;stroke:#000000;stroke-linecap:round;stroke-width:2.2" />
        <polyline points=" 39.6669,21.7882 39.6669,21.7882 43.9393,26.0607 43.9393,26.0607" style="fill:none;stroke:#000000;stroke-linecap:round;stroke-width:2.2" />
    </g>
    <g>
        <polyline points=" 3.93934,6.06066 3.93934,6.06066 8.21177,10.3331 8.21177,10.3331" style="fill:none;stroke:#0000FF;stroke-linecap:round;stroke-opacity:1;stroke-width:2" />
        <polyline points=" 21.2,15 28.8,15" style="fill:none;stroke:#0000FF;stroke-linecap:round;stroke-opacity:1;stroke-width:2" />
        <polyline points=" 39.6669,21.7882 39.6669,21.7882 43.9393,26.0607 43.9393,26.0607" style="fill:none;stroke:#0000FF;stroke-linecap:round;stroke-opacity:1;stroke-width:2" />
    </g>
    <g>
        <polyline points=" 10.2745,8.15474 12.0899,9.87377 13.4119,10.9073 14.4318,11.4653 15.4441,11.7729 16.8243,11.9428 21.2011,12" style="fill:none;stroke:#000000;stroke-linecap:butt;stroke-width:2.2" />
        <polyline points=" 10.2745,8.15474 12.0899,9.87377 13.4119,10.9073 14.4318,11.4653 15.4441,11.7729 16.8243,11.9428 21.2011,12" style="fill:none;stroke:#FF0000;stroke-linecap:round;stroke-opacity:1;stroke-width:2" />
        <polyline points=" 8.21177,10.3331 10.1303,12.1498 11.7572,13.4217 13.2635,14.2457 14.8201,14.7187 16.598,14.9375 21.2,15" style="fill:none;stroke:#000000;stroke-linecap:butt;stroke-width:2.2" />
        <polyline points=" 8.21177,10.3331 10.1303,12.1498 11.7572,13.4217 13.2635,14.2457 14.8201,14.7187 16.598,14.9375 21.2,15" style="fill:none;stroke:#0000FF;stroke-linecap:round;stroke-opacity:1;stroke-width:2" />
    </g>
    <g>
        <polyline points=" 9.27244,20.7276 11.1986,19.0483 12.8651,18.1216 14.4677,17.7503 21.2,18" style="fill:none;stroke:#000000;stroke-linecap:butt;stroke-width:2.2" />
        <polyline points=" 9.27244,20.7276 11.1986,19.0483 12.8651,18.1216 14.4677,17.7503 21.2,18" style="fill:none;stroke:#00FF00;stroke-linecap:round;stroke-opacity:1;stroke-width:2" />
    </g>
    <g>
        <polyline points=" 41.7882,19.6669 37.1055,14.6845 35.82,13.613 34.3774,12.8206 32.6009,12.2982 28.8,12" style="fill:none;stroke:#000000;stroke-linecap:butt;stroke-width:2.2" />
        <polyline points=" 41.7882,19.6669 37.1055,14.6845 35.82,13.613 34.3774,12.8206 32.6009,12.2982 28.8,12" style="fill:none;stroke:#FF0000;stroke-linecap:round;stroke-opacity:1;stroke-width:2" />
        <polyline points=" 39.6182,21.7384 35.0565,16.8821 34.1217,16.1029 33.2186,15.6069 32.0026,15.2493 28.728,14.9991" style="fill:none;stroke:#000000;stroke-linecap:butt;stroke-width:2.2" />
        <polyline points=" 39.6182,21.7384 35.0565,16.8821 34.1217,16.1029 33.2186,15.6069 32.0026,15.2493 28.728,14.9991" style="fill:none;stroke:#0000FF;stroke-linecap:round;stroke-opacity:1;stroke-width:2" />
    </g>
    <g>
        <polyline points=" 40.7276,9.27244 38.8964,11.2947 35.2209,15.9609 33.9083,16.9614 32.2054,17.6402 28.8,18" style="fill:none;stroke:#000000;stroke-linecap:butt;stroke-width:2.2" />
        <polyline points=" 40.7276,9.27244 38.8964,11.2947 35.2209,15.9609 33.9083,16.9614 32.2054,17.6402 28.8,18" style="fill:none;stroke:#00FF00;stroke-linecap:round;stroke-opacity:1;stroke-width:2" />
    </g>
    <g />
</svg>