<?xml version="1.0" encoding="UTF-8"?>
<!DOCTYPE svg PUBLIC "-//W3C//DTD SVG 1.1//EN" "http://www.w3.org/Graphics/SVG/1.1/DTD/svg11.dtd">
<svg height="30.000000px" width="50.000000px">
    <defs />
    <g>
        <polyline points=" 5,5 12.1009,12.1009" style="fill:none;stroke:#000000;stroke-linecap:round;stroke-opacity:0.8;stroke-width:1.2" />
        <polyline points=" 18.1,15 31.9,15" style="fill:none;stroke:#000000;stroke-linecap:round;stroke-opacity:0.8;stroke-width:1.2" />
        <polyline points=" 38.4295,17.3688 45.5303,24.4697" style="fill:none;stroke:#000000;stroke-linecap:round;stroke-opacity:0.8;stroke-width:1.2" />
        <polyline points=" 12.1009,12.1009 12.6912,12.6941 13.2044,13.2047 13.6624,13.6383 14.0876,14.0003 14.502,14.2965 14.928,14.5322 15.3876,14.7132 15.9031,14.8448 16.4966,14.9328 17.1903,14.9826 18.0064,14.9999 18.1,15" style="fill:none;stroke:#000000;stroke-linecap:round;stroke-opacity:0.8;stroke-width:1.2" />
        <polyline points=" 38.4295,17.3688 37.8315,16.7876 37.2984,16.3101 36.8117,15.9261 36.3533,15.6255 35.9047,15.3979 35.4478,15.2334 34.9643,15.1217 34.4358,15.0526 33.8441,15.0161 33.171,15.0018 32.398,14.9997 31.9,15" style="fill:none;stroke:#000000;stroke-linecap:round;stroke-opacity:0.8;stroke-width:1.2" />
    </g>
    <g>
        <polyline points=" 5,5 12.1009,12.1009" style="fill:none;stroke:#FF0000;stroke-linecap:round;stroke-opacity:1;stroke-width:1" />
        <polyline points=" 18.1,15 31.9,15" style="fill:none;stroke:#FF0000;stroke-linecap:round;stroke-opacity:1;stroke-width:1" />
        <polyline points=" 38.4295,17.3688 45.5303,24.4697" style="fill:none;stroke:#FF0000;stroke-linecap:round;stroke-opacity:1;stroke-width:1" />
        <polyline points=" 12.1009,12.1009 12.6912,12.6941 13.2044,13.2047 13.6624,13.6383 14.0876,14.0003 14.502,14.2965 14.928,14.5322 15.3876,14.7132 15.9031,14.8448 16.4966,14.9328 17.1903,14.9826 18.0064,14.9999 18.1,15" style="fill:none;stroke:#FF0000;stroke-linecap:round;stroke-opacity:1;stroke-width:1" />
        <polyline points=" 38.4295,17.3688 37.8315,16.7876 37.2984,16.3101 36.8117,15.9261 36.3533,15.6255 35.9047,15.3979 35.4478,15.2334 34.9643,15.1217 34.4358,15.0526 33.8441,15.0161 33.171,15.0018 32.398,14.9997 31.9,15" style="fill:none;stroke:#FF0000;stroke-linecap:round;stroke-opacity:1;stroke-width:1" />
    </g>
    <g>
        <polyline points=" 4.46967,24.4697 11.5705,17.3688 11.5705,17.3688" style="fill:none;stroke:#000000;stroke-linecap:round;stroke-opacity:0.8;stroke-width:1.2" />
        <polyline points=" 18.1,13.5 31.9,13.5" style="fill:none;stroke:#000000;stroke-linecap:round;stroke-opacity:0.8;stroke-width:1.2" />
        <polyline points=" 37.8991,12.1009 45,5" style="fill:none;stroke:#000000;stroke-linecap:round;stroke-opacity:0.8;stroke-width:1.2" />
        <polyline points=" 11.5705,17.3688 12.1607,16.7603 12.6711,16.2071 13.1206,15.7082 13.5282,15.2627 13.9126,14.8696 14.2928,14.5281 14.6877,14.2372 15.1162,13.996 15.5973,13.8035 16.1497,13.6589 16.7924,13.5612 17.5444,13.5094 18.1,13.5" style="fill:none;stroke:#000000;stroke-linecap:round;stroke-opacity:0.8;stroke-width:1.2" />
        <polyline points=" 37.8991,12.1009 37.3001,12.6566 36.762,13.0647 36.2638,13.3459 35.7845,13.521 35.3034,13.6105 34.7993,13.6354 34.2514,13.6162 33.6388,13.5737 32.9405,13.5286 32.1355,13.5015 31.9,13.5" style="fill:none;stroke:#000000;stroke-linecap:round;stroke-opacity:0.8;stroke-width:1.2" />
    </g>
    <g>
        <polyline points=" 4.46967,24.4697 11.5705,17.3688 11.5705,17.3688" style="fill:none;stroke:#00FF00;stroke-linecap:round;stroke-opacity:1;stroke-width:1" />
        <polyline points=" 18.1,13.5 31.9,13.5" style="fill:none;stroke:#00FF00;stroke-linecap:round;stroke-opacity:1;stroke-width:1" />
        <polyline points=" 37.8991,12.1009 45,5" style="fill:none;stroke:#00FF00;stroke-linecap:round;stroke-opacity:1;stroke-width:1" />
        <polyline points=" 11.5705,17.3688 12.1607,16.7603 12.6711,16.2071 13.1206,15.7082 13.5282,15.2627 13.9126,14.8696 14.2928,14.5281 14.6877,14.2372 15.1162,13.996 15.5973,13.8035 16.1497,13.6589 16.7924,13.5612 17.5444,13.5094 18.1,13.5" style="fill:none;stroke:#00FF00;stroke-linecap:round;stroke-opacity:1;stroke-width:1" />
        <polyline points=" 37.8991,12.1009 37.3001,12.6566 36.762,13.0647 36.2638,13.3459 35.7845,13.521 35.3034,13.6105 34.7993,13.6354 34.2514,13.6162 33.6388,13.5737 32.9405,13.5286 32.1355,13.5015 31.9,13.5" style="fill:none;stroke:#00FF00;stroke-linecap:round;stroke-opacity:1;stroke-width:1" />
    </g>
    <g>
        <polyline points=" 5.53033,25.5303 12.6312,18.4295" style="fill:none;stroke:#000000;stroke-linecap:round;stroke-opacity:0.8;stroke-width:1.2" />
        <polyline points=" 18.1,16.5 31.9,16.5" style="fill:none;stroke:#000000;stroke-linecap:round;stroke-opacity:0.8;stroke-width:1.2" />
        <polyline points=" 37.3688,18.4295 37.3688,18.4295 44.4697,25.5303 44.4697,25.5303" style="fill:none;stroke:#000000;stroke-linecap:round;stroke-opacity:0.8;stroke-width:1.2" />
        <polyline points=" 12.6312,18.4295 13.2227,17.8603 13.7419,17.4153 14.2147,17.0793 14.6672,16.837 15.1253,16.6733 15.615,16.5729 16.1623,16.5205 16.7932,16.501 17.5338,16.499 18.1,16.5" style="fill:none;stroke:#000000;stroke-linecap:round;stroke-opacity:0.8;stroke-width:1.2" />
        <polyline points=" 37.3688,18.4295 36.7773,17.8603 36.2581,17.4153 35.7853,17.0793 35.3328,16.837 34.8747,16.6733 34.385,16.5729 33.8377,16.5205 33.2068,16.501 32.4662,16.499 31.9,16.5" style="fill:none;stroke:#000000;stroke-linecap:round;stroke-opacity:0.8;stroke-width:1.2" />
    </g>
    <g>
        <polyline points=" 5.53033,25.5303 12.6312,18.4295" style="fill:none;stroke:#0000FF;stroke-linecap:round;stroke-opacity:1;stroke-width:1" />
        <polyline points=" 18.1,16.5 31.9,16.5" style="fill:none;stroke:#0000FF;stroke-linecap:round;stroke-opacity:1;stroke-width:1" />
        <polyline points=" 37.3688,18.4295 37.3688,18.4295 44.4697,25.5303 44.4697,25.5303" style="fill:none;stroke:#0000FF;stroke-linecap:round;stroke-opacity:1;stroke-width:1" />
        <polyline points=" 12.6312,18.4295 13.2227,17.8603 13.7419,17.4153 14.2147,17.0793 14.6672,16.837 15.1253,16.6733 15.615,16.5729 16.1623,16.5205 16.7932,16.501 17.5338,16.499 18.1,16.5" style="fill:none;stroke:#0000FF;stroke-linecap:round;stroke-opacity:1;stroke-width:1" />
        <polyline points=" 37.3688,18.4295 36.7773,17.8603 36.2581,17.4153 35.7853,17.0793 35.3328,16.837 34.8747,16.6733 34.385,16.5729 33.8377,16.5205 33.2068,16.501 32.4662,16.499 31.9,16.5" style="fill:none;stroke:#0000FF;stroke-linecap:round;stroke-opacity:1;stroke-width:1" />
    </g>
    <g />
</svg>