<?xml version="1.0" encoding="UTF-8"?>
<!DOCTYPE svg PUBLIC "-//W3C//DTD SVG 1.1//EN" "http://www.w3.org/Graphics/SVG/1.1/DTD/svg11.dtd">
<svg height="30.000000px" width="50.000000px">
    <defs />
    <g>
        <polyline points=" 5,5 9.27244,9.27244" style="fill:none;stroke:#000000;stroke-linecap:round;stroke-width:2.2" />
        <polyline points=" 21.2,15 28.8,15" style="fill:none;stroke:#000000;stroke-linecap:round;stroke-width:2.2" />
        <polyline points=" 41.7882,19.6669 46.0607,23.9393" style="fill:none;stroke:#000000;stroke-linecap:round;stroke-width:2.2" />
    </g>
    <g>
        <polyline points=" 5,5 9.27244,9.27244" style="fill:none;stroke:#FF0000;stroke-linecap:round;stroke-opacity:1;stroke-width:2" />
        <polyline points=" 21.2,15 28.8,15" style="fill:none;stroke:#FF0000;stroke-linecap:round;stroke-opacity:1;stroke-width:2" />
        <polyline points=" 41.7882,19.6669 46.0607,23.9393" style="fill:none;stroke:#FF0000;stroke-linecap:round;stroke-opacity:1;stroke-width:2" />
    </g>
    <g>
        <polyline points=" 3.93934,23.9393 8.21177,19.6669" style="fill:none;stroke:#000000;stroke-linecap:round;stroke-width:2.2" />
        <polyline points=" 21.2,12 28.8,12" style="fill:none;stroke:#000000;stroke-linecap:round;stroke-width:2.2" />
        <polyline points=" 40.7276,9.27244 45,5" style="fill:none;stroke:#000000;stroke-linecap:round;stroke-width:2.2" />
    </g>
    <g>
        <polyline points=" 3.93934,23.9393 8.21177,19.6669" style="fill:none;stroke:#00FF00;stroke-linecap:round;stroke-opacity:1;stroke-width:2" />
        <polyline points=" 21.2,12 28.8,12" style="fill:none;stroke:#00FF00;stroke-linecap:round;stroke-opacity:1;stroke-width:2" />
        <polyline points=" 40.7276,9.27244 45,5" style="fill:none;stroke:#00FF00;stroke-linecap:round;stroke-opacity:1;stroke-width:2" />
    </g>
    <g>
        <polyline points=" 6.06066,26.0607 10.3331,21.7882" style="fill:none;stroke:#000000;stroke-linecap:round;stroke-width:2.2" />
        <polyline points=" 21.2,18 28.8,18" style="fill:none;stroke:#000000;stroke-linecap:round;stroke-width:2.2" />
        <polyline points=" 39.6669,21.7882 39.6669,21.7882 43.9393,26.0607 43.9393,26.0607" style="fill:none;stroke:#000000;stroke-linecap:round;stroke-width:2.2" />
    </g>
    <g>
        <polyline points=" 6.06066,26.0607 10.3331,21.7882" style="fill:none;stroke:#0000FF;stroke-linecap:round;stroke-opacity:1;stroke-width:2" />
        <polyline points=" 21.2,18 28.8,18" style="fill:none;stroke:#0000FF;stroke-linecap:round;stroke-opacity:1;stroke-width:2" />
        <polyline points=" 39.6669,21.7882 39.6669,21.7882 43.9393,26.0607 43.9393,26.0607" style="fill:none;stroke:#0000FF;stroke-linecap:round;stroke-opacity:1;stroke-width:2" />
    </g>
    <g>
        <polyline points=" 9.27244,9.27244 12.6833,12.5915 14.0764,13.6385 15.5385,14.3484 17.2771,14.7746 21.2,15" style="fill:none;stroke:#000000;stroke-linecap:butt;stroke-width:2.2" />
        <polyline points=" 9.27244,9.27244 12.6833,12.5915 14.0764,13.6385 15.5385,14.3484 17.2771,14.7746 21.2,15" style="fill:none;stroke:#FF0000;stroke-linecap:round;stroke-opacity:1;stroke-width:2" />
    </g>
    <g>
        <polyline points=" 10.3331,21.7882 12.2209,20.0367 13.8043,18.9275 15.3266,18.3149 17.0316,18.0529 21.2,18" style="fill:none;stroke:#000000;stroke-linecap:butt;stroke-width:2.2" />
        <polyline points=" 10.3331,21.7882 12.2209,20.0367 13.8043,18.9275 15.3266,18.3149 17.0316,18.0529 21.2,18" style="fill:none;stroke:#0000FF;stroke-linecap:round;stroke-opacity:1;stroke-width:2" />
    </g>
    <g>
        <polyline points=" 8.21177,19.6669 12.8945,14.6845 14.18,13.613 15.6226,12.8206 17.3991,12.2982 21.2,12" style="fill:none;stroke:#000000;stroke-linecap:butt;stroke-width:2.2" />
        <polyline points=" 8.21177,19.6669 12.8945,14.6845 14.18,13.613 15.6226,12.8206 17.3991,12.2982 21.2,12" style="fill:none;stroke:#00FF00;stroke-linecap:round;stroke-opacity:1;stroke-width:2" />
    </g>
    <g>
        <polyline points=" 28.8,15 33.5934,15.0756 35.3417,15.3153 36.8857,15.8189 38.3963,16.6831 41.7882,19.6669" style="fill:none;stroke:#000000;stroke-linecap:butt;stroke-width:2.2" />
        <polyline points=" 28.8,15 33.5934,15.0756 35.3417,15.3153 36.8857,15.8189 38.3963,16.6831 41.7882,19.6669" style="fill:none;stroke:#FF0000;stroke-linecap:round;stroke-opacity:1;stroke-width:2" />
        <polyline points=" 28.7969,18 33.3376,18.0686 34.6674,18.2509 35.663,18.5756 36.7027,19.1705 38.0676,20.2649 39.7183,21.8384" style="fill:none;stroke:#000000;stroke-linecap:butt;stroke-width:2.2" />
        <polyline points=" 28.7969,18 33.3376,18.0686 34.6674,18.2509 35.663,18.5756 36.7027,19.1705 38.0676,20.2649 39.7183,21.8384" style="fill:none;stroke:#0000FF;stroke-linecap:round;stroke-opacity:1;stroke-width:2" />
    </g>
    <g>
        <polyline points=" 28.8,12 35.3387,12.266 36.9467,11.9472 38.5955,11.0961 40.7276,9.27244" style="fill:none;stroke:#000000;stroke-linecap:butt;stroke-width:2.2" />
        <polyline points=" 28.8,12 35.3387,12.266 36.9467,11.9472 38.5955,11.0961 40.7276,9.27244" style="fill:none;stroke:#00FF00;stroke-linecap:round;stroke-opacity:1;stroke-width:2" />
    </g>
    <g />
</svg>