<?xml version="1.0" encoding="UTF-8"?>
<!DOCTYPE svg PUBLIC "-//W3C//DTD SVG 1.1//EN" "http://www.w3.org/Graphics/SVG/1.1/DTD/svg11.dtd">
<svg height="30.000000px" width="50.000000px">
    <defs />
    <g>
        <polyline points=" 5,5 12.1009,12.1009" style="fill:none;stroke:#000000;stroke-linecap:round;stroke-opacity:0.8;stroke-width:1.2" />
        <polyline points=" 18.1,16.5 31.9,16.5" style="fill:none;stroke:#000000;stroke-linecap:round;stroke-opacity:0.8;stroke-width:1.2" />
        <polyline points=" 37.3688,18.4295 37.3688,18.4295 44.4697,25.5303 44.4697,25.5303" style="fill:none;stroke:#000000;stroke-linecap:round;stroke-opacity:0.8;stroke-width:1.2" />
        <polyline points=" 12.1009,12.1009 12.6828,12.72 13.1706,13.3026 13.5864,13.8459 13.9525,14.3471 14.291,14.8032 14.6242,15.2113 14.9742,15.5688 15.3632,15.8726 15.8135,16.1199 16.3471,16.3079 16.9864,16.4338 17.7536,16.4945 18.1,16.5" style="fill:none;stroke:#000000;stroke-linecap:round;stroke-opacity:0.8;stroke-width:1.2" />
        <polyline points=" 37.3688,18.4295 36.7773,17.8603 36.2581,17.4153 35.7853,17.0793 35.3328,16.837 34.8747,16.6733 34.385,16.5729 33.8377,16.5205 33.2068,16.501 32.4662,16.499 31.9,16.5" style="fill:none;stroke:#000000;stroke-linecap:round;stroke-opacity:0.8;stroke-width:1.2" />
    </g>
    <g>
        <polyline points=" 5,5 12.1009,12.1009" style="fill:none;stroke:#FF0000;stroke-linecap:round;stroke-opacity:1;stroke-width:1" />
        <polyline points=" 18.1,16.5 31.9,16.5" style="fill:none;stroke:#FF0000;stroke-linecap:round;stroke-opacity:1;stroke-width:1" />
        <polyline points=" 37.3688,18.4295 37.3688,18.4295 44.4697,25.5303 44.4697,25.5303" style="fill:none;stroke:#FF0000;stroke-linecap:round;stroke-opacity:1;stroke-width:1" />
        <polyline points=" 12.1009,12.1009 12.6828,12.72 13.1706,13.3026 13.5864,13.8459 13.9525,14.3471 14.291,14.8032 14.6242,15.2113 14.9742,15.5688 15.3632,15.8726 15.8135,16.1199 16.3471,16.3079 16.9864,16.4338 17.7536,16.4945 18.1,16.5" style="fill:none;stroke:#FF0000;stroke-linecap:round;stroke-opacity:1;stroke-width:1" />
        <polyline points=" 37.3688,18.4295 36.7773,17.8603 36.2581,17.4153 35.7853,17.0793 35.3328,16.837 34.8747,16.6733 34.385,16.5729 33.8377,16.5205 33.2068,16.501 32.4662,16.499 31.9,16.5" style="fill:none;stroke:#FF0000;stroke-linecap:round;stroke-opacity:1;stroke-width:1" />
    </g>
    <g>
        <polyline points=" 4.46967,24.4697 11.5705,17.3688 11.5705,17.3688" style="fill:none;stroke:#000000;stroke-linecap:round;stroke-opacity:0.8;stroke-width:1.2" />
        <polyline points=" 18.1,13.5 31.9,13.5" style="fill:none;stroke:#000000;stroke-linecap:round;stroke-opacity:0.8;stroke-width:1.2" />
        <polyline points=" 37.8991,12.1009 45,5" style="fill:none;stroke:#000000;stroke-linecap:round;stroke-opacity:0.8;stroke-width:1.2" />
        <polyline points=" 11.5705,17.3688 12.1607,16.7603 12.6711,16.2071 13.1206,15.7082 13.5282,15.2627 13.9126,14.8696 14.2928,14.5281 14.6877,14.2372 15.1162,13.996 15.5973,13.8035 16.1497,13.6589 16.7924,13.5612 17.5444,13.5094 18.1,13.5" style="fill:none;stroke:#000000;stroke-linecap:round;stroke-opacity:0.8;stroke-width:1.2" />
        <polyline points=" 37.8991,12.1009 37.3001,12.6566 36.762,13.0647 36.2638,13.3459 35.7845,13.521 35.3034,13.6105 34.7993,13.6354 34.2514,13.6162 33.6388,13.5737 32.9405,13.5286 32.1355,13.5015 31.9,13.5" style="fill:none;stroke:#000000;stroke-linecap:round;stroke-opacity:0.8;stroke-width:1.2" />
    </g>
    <g>
        <polyline points=" 4.46967,24.4697 11.5705,17.3688 11.5705,17.3688" style="fill:none;stroke:#00FF00;stroke-linecap:round;stroke-opacity:1;stroke-width:1" />
        <polyline points=" 18.1,13.5 31.9,13.5" style="fill:none;stroke:#00FF00;stroke-linecap:round;stroke-opacity:1;stroke-width:1" />
        <polyline points=" 37.8991,12.1009 45,5" style="fill:none;stroke:#00FF00;stroke-linecap:round;stroke-opacity:1;stroke-width:1" />
        <polyline points=" 11.5705,17.3688 12.1607,16.7603 12.6711,16.2071 13.1206,15.7082 13.5282,15.2627 13.9126,14.8696 14.2928,14.5281 14.6877,14.2372 15.1162,13.996 15.5973,13.8035 16.1497,13.6589 16.7924,13.5612 17.5444,13.5094 18.1,13.5" style="fill:none;stroke:#00FF00;stroke-linecap:round;stroke-opacity:1;stroke-width:1" />
        <polyline points=" 37.8991,12.1009 37.3001,12.6566 36.762,13.0647 36.2638,13.3459 35.7845,13.521 35.3034,13.6105 34.7993,13.6354 34.2514,13.6162 33.6388,13.5737 32.9405,13.5286 32.1355,13.5015 31.9,13.5" style="fill:none;stroke:#00FF00;stroke-linecap:round;stroke-opacity:1;stroke-width:1" />
    </g>
    <g>
        <polyline points=" 5.53033,25.5303 12.6312,18.4295" style="fill:none;stroke:#000000;stroke-linecap:round;stroke-opacity:0.8;stroke-width:1.2" />
        <polyline points=" 18.1,15 31.9,15" style="fill:none;stroke:#000000;stroke-linecap:round;stroke-opacity:0.8;stroke-width:1.2" />
        <polyline points=" 38.4295,17.3688 45.5303,24.4697" style="fill:none;stroke:#000000;stroke-linecap:round;stroke-opacity:0.8;stroke-width:1.2" />
        <polyline points=" 12.6312,18.4295 13.2119,17.8225 13.699,17.2744 14.1197,16.7853 14.5007,16.3552 14.8691,15.9842 15.2517,15.6723 15.6756,15.4195 16.1677,15.2261 16.7548,15.0919 17.4641,15.0171 18.1,15" style="fill:none;stroke:#000000;stroke-linecap:round;stroke-opacity:0.8;stroke-width:1.2" />
        <polyline points=" 38.4295,17.3688 37.8315,16.7876 37.2984,16.3101 36.8117,15.9261 36.3533,15.6255 35.9047,15.3979 35.4478,15.2334 34.9643,15.1217 34.4358,15.0526 33.8441,15.0161 33.171,15.0018 32.398,14.9997 31.9,15" style="fill:none;stroke:#000000;stroke-linecap:round;stroke-opacity:0.8;stroke-width:1.2" />
    </g>
    <g>
        <polyline points=" 5.53033,25.5303 12.6312,18.4295" style="fill:none;stroke:#0000FF;stroke-linecap:round;stroke-opacity:1;stroke-width:1" />
        <polyline points=" 18.1,15 31.9,15" style="fill:none;stroke:#0000FF;stroke-linecap:round;stroke-opacity:1;stroke-width:1" />
        <polyline points=" 38.4295,17.3688 45.5303,24.4697" style="fill:none;stroke:#0000FF;stroke-linecap:round;stroke-opacity:1;stroke-width:1" />
        <polyline points=" 12.6312,18.4295 13.2119,17.8225 13.699,17.2744 14.1197,16.7853 14.5007,16.3552 14.8691,15.9842 15.2517,15.6723 15.6756,15.4195 16.1677,15.2261 16.7548,15.0919 17.4641,15.0171 18.1,15" style="fill:none;stroke:#0000FF;stroke-linecap:round;stroke-opacity:1;stroke-width:1" />
        <polyline points=" 38.4295,17.3688 37.8315,16.7876 37.2984,16.3101 36.8117,15.9261 36.3533,15.6255 35.9047,15.3979 35.4478,15.2334 34.9643,15.1217 34.4358,15.0526 33.8441,15.0161 33.171,15.0018 32.398,14.9997 31.9,15" style="fill:none;stroke:#0000FF;stroke-linecap:round;stroke-opacity:1;stroke-width:1" />
    </g>
    <g />
</svg>